<?xml version="1.0" encoding="utf-8"?>
<!-- Generator: Adobe Illustrator 23.0.3, SVG Export Plug-In . SVG Version: 6.00 Build 0)  -->
<svg version="1.1" xmlns="http://www.w3.org/2000/svg" xmlns:xlink="http://www.w3.org/1999/xlink" x="0px" y="0px"
	 viewBox="0 0 500 500" style="enable-background:new 0 0 500 500;" xml:space="preserve">
<style type="text/css">
	.st0{display:none;}
	.st1{display:inline;fill:#DCEAF2;}
	.st2{fill:#FFFFFF;}
	.st3{display:none;fill:#BCD2DE;}
	.st4{fill:#BCD2DE;}
	.st5{fill:#6CA3BC;}
	.st6{fill:#ABD9EF;}
	.st7{fill:#A5D2E7;}
	.st8{display:inline;fill:#AAB6DC;}
	.st9{display:inline;fill:#D8D9ED;}
	.st10{display:inline;fill:#FFFFFF;}
	.st11{display:inline;fill:#A5D2E7;}
	.st12{fill:#3DC6F3;}
	.st13{fill:#36ACD3;}
	.st14{fill:#FCC897;}
	.st15{fill:#007884;}
	.st16{fill:#008C9B;}
	.st17{fill:#007C88;}
	.st18{fill:#FFD486;}
	.st19{fill:#FCBA63;}
	.st20{fill:#EC1C24;}
	.st21{fill:#CF181F;}
	.st22{fill:#4D5160;}
	.st23{fill:#EA5D62;}
	.st24{fill:#DC4550;}
	.st25{fill:#373A46;}
	.st26{fill:#F17379;}
	.st27{fill:#FFD200;}
	.st28{fill:#FAA819;}
	.st29{fill:#BBBDBF;}
	.st30{fill:#E3E4E5;}
	.st31{fill:#20647B;}
	.st32{fill:#317F9A;}
	.st33{display:inline;}
	.st34{fill:#1C1C1B;}
</style>
<g id="BACKGROUND" class="st0">
	<rect class="st1" width="500" height="500"/>
</g>
<g id="OBJECTS">
	<path class="st2" d="M123.51,104.76c2.62-0.1,5.31-0.22,7.73-1.21c2.43-1,4.58-3.07,4.92-5.67c-4.54-2.04-9.96-2.01-14.47,0.07
		c1.41-2.36,0.9-5.68-1.14-7.51c-2.04-1.84-5.4-1.98-7.59-0.33c2.51-3.93,1.55-9.63-1.99-12.67c-3.54-3.04-9.15-3.21-12.99-0.57
		c-3.84,2.65-5.69,7.79-4.62,12.33c-1.14-3.25-4.96-5.3-8.3-4.45c-3.34,0.85-5.72,4.46-5.18,7.86c-0.79-2-3.35-3.08-5.33-2.25
		c-1.98,0.83-3.01,3.41-2.14,5.38c-5.32-1.62-11.61,2.23-12.6,7.69C80.88,106.4,102.27,105.59,123.51,104.76z"/>
	<path class="st2" d="M380.65,171.63c-2.5-0.97-5.52-0.38-7.47,1.45c-1.95,1.83-2.73,4.82-1.92,7.37c-3.65-1.58-8.29,2.38-7.31,6.24
		c23.62,2.54,47.46,3,71.17,1.37c-0.18-2.94-2.22-5.69-4.98-6.71c-2.76-1.02-6.1-0.27-8.15,1.84c0.45-2.69,0.5-5.65-1.02-7.91
		c-1.52-2.26-5.09-3.25-7.03-1.34c3.84-4.93,1.5-12.96-3.92-16.06c-5.42-3.1-12.65-1.72-17.47,2.26
		c-4.82,3.98-7.48,10.08-8.56,16.23C382.87,174.79,381.76,173.21,380.65,171.63z"/>
	<path class="st2" d="M57.9,185.86c-1.89-0.73-4.18-0.29-5.65,1.1c-1.48,1.39-2.06,3.64-1.45,5.57c-2.76-1.19-6.27,1.8-5.53,4.72
		c17.86,1.92,35.9,2.27,53.82,1.03c-0.13-2.22-1.68-4.3-3.76-5.08s-4.61-0.2-6.17,1.39c0.34-2.03,0.37-4.27-0.77-5.98
		c-1.15-1.71-3.85-2.46-5.32-1.01c2.9-3.73,1.14-9.8-2.97-12.14c-4.1-2.34-9.57-1.3-13.21,1.71c-3.64,3.01-5.65,7.62-6.48,12.27
		C59.58,188.25,58.74,187.06,57.9,185.86z"/>
	<path class="st3" d="M469.03,384.53c0,2.95-13.88,5.33-31,5.33s-31-2.39-31-5.33c0-2.95,13.88-5.33,31-5.33
		S469.03,381.58,469.03,384.53z"/>
	<ellipse class="st3" cx="62.03" cy="385.19" rx="31" ry="5.33"/>
	<path class="st4" d="M135.03,431.86c0,2.95-13.88,5.33-31,5.33c-17.12,0-31-2.39-31-5.33c0-2.95,13.88-5.33,31-5.33
		C121.15,426.53,135.03,428.92,135.03,431.86z"/>
	<ellipse class="st4" cx="252.03" cy="404.36" rx="137.5" ry="9.83"/>
	<ellipse class="st4" cx="398.7" cy="437.19" rx="31" ry="5.33"/>
	<ellipse class="st4" cx="248.78" cy="445.69" rx="40.5" ry="15.5"/>
	<g>
		<path class="st5" d="M133.07,403.42h243.74c5.68,0,10.28-4.6,10.28-10.28V81.78c0-6.01-4.87-10.88-10.88-10.88H133.07
			c-9.3,0-16.84,7.54-16.84,16.84v298.84C116.23,395.88,123.77,403.42,133.07,403.42z"/>
		<path class="st2" d="M151.57,389.2h206.74c8.71,0,15.78-7.06,15.78-15.78V101.51c0-9.05-7.33-16.38-16.38-16.38H151.57
			c-12.34,0-22.34,10-22.34,22.34v259.38C129.23,379.19,139.23,389.2,151.57,389.2z"/>
		<circle class="st6" cx="169.06" cy="144.86" r="15.92"/>
		<circle class="st2" cx="169.06" cy="144.86" r="12.13"/>
		<g>
			<path class="st6" d="M344.89,136.11H215.28c-1.52,0-2.75-1.23-2.75-2.75l0,0c0-1.52,1.23-2.75,2.75-2.75h129.61
				c1.52,0,2.75,1.23,2.75,2.75l0,0C347.64,134.88,346.41,136.11,344.89,136.11z"/>
			<path class="st6" d="M344.89,147.94h-146.2c-1.52,0-2.75-1.23-2.75-2.75l0,0c0-1.52,1.23-2.75,2.75-2.75h146.2
				c1.52,0,2.75,1.23,2.75,2.75l0,0C347.64,146.71,346.41,147.94,344.89,147.94z"/>
			<path class="st6" d="M344.89,159.77h-146.2c-1.52,0-2.75-1.23-2.75-2.75l0,0c0-1.52,1.23-2.75,2.75-2.75h146.2
				c1.52,0,2.75,1.23,2.75,2.75l0,0C347.64,158.54,346.41,159.77,344.89,159.77z"/>
		</g>
		<circle class="st6" cx="169.06" cy="195.36" r="15.92"/>
		<circle class="st2" cx="169.06" cy="195.36" r="12.13"/>
		<g>
			<path class="st6" d="M344.89,186.61H215.28c-1.52,0-2.75-1.23-2.75-2.75l0,0c0-1.52,1.23-2.75,2.75-2.75h129.61
				c1.52,0,2.75,1.23,2.75,2.75l0,0C347.64,185.38,346.41,186.61,344.89,186.61z"/>
			<path class="st6" d="M344.89,198.44h-146.2c-1.52,0-2.75-1.23-2.75-2.75l0,0c0-1.52,1.23-2.75,2.75-2.75h146.2
				c1.52,0,2.75,1.23,2.75,2.75l0,0C347.64,197.21,346.41,198.44,344.89,198.44z"/>
			<path class="st6" d="M344.89,210.27h-146.2c-1.52,0-2.75-1.23-2.75-2.75l0,0c0-1.52,1.23-2.75,2.75-2.75h146.2
				c1.52,0,2.75,1.23,2.75,2.75l0,0C347.64,209.04,346.41,210.27,344.89,210.27z"/>
		</g>
		<circle class="st6" cx="169.06" cy="245.86" r="15.92"/>
		<circle class="st2" cx="169.06" cy="245.86" r="12.13"/>
		<g>
			<path class="st6" d="M344.89,237.11H215.28c-1.52,0-2.75-1.23-2.75-2.75l0,0c0-1.52,1.23-2.75,2.75-2.75h129.61
				c1.52,0,2.75,1.23,2.75,2.75l0,0C347.64,235.88,346.41,237.11,344.89,237.11z"/>
			<path class="st6" d="M344.89,248.94h-146.2c-1.52,0-2.75-1.23-2.75-2.75l0,0c0-1.52,1.23-2.75,2.75-2.75h146.2
				c1.52,0,2.75,1.23,2.75,2.75l0,0C347.64,247.71,346.41,248.94,344.89,248.94z"/>
			<path class="st6" d="M344.89,260.77h-146.2c-1.52,0-2.75-1.23-2.75-2.75l0,0c0-1.52,1.23-2.75,2.75-2.75h146.2
				c1.52,0,2.75,1.23,2.75,2.75l0,0C347.64,259.54,346.41,260.77,344.89,260.77z"/>
		</g>
		<circle class="st6" cx="169.06" cy="296.36" r="15.92"/>
		<circle class="st2" cx="169.06" cy="296.36" r="12.13"/>
		<g>
			<path class="st6" d="M344.89,287.61H215.28c-1.52,0-2.75-1.23-2.75-2.75l0,0c0-1.52,1.23-2.75,2.75-2.75h129.61
				c1.52,0,2.75,1.23,2.75,2.75l0,0C347.64,286.38,346.41,287.61,344.89,287.61z"/>
			<path class="st6" d="M344.89,299.44h-146.2c-1.52,0-2.75-1.23-2.75-2.75l0,0c0-1.52,1.23-2.75,2.75-2.75h146.2
				c1.52,0,2.75,1.23,2.75,2.75l0,0C347.64,298.21,346.41,299.44,344.89,299.44z"/>
			<path class="st6" d="M344.89,311.27h-146.2c-1.52,0-2.75-1.23-2.75-2.75l0,0c0-1.52,1.23-2.75,2.75-2.75h146.2
				c1.52,0,2.75,1.23,2.75,2.75l0,0C347.64,310.04,346.41,311.27,344.89,311.27z"/>
		</g>
		<path class="st6" d="M313.89,65.36h-45.03c0-10.2-8.27-18.47-18.47-18.47c-10.2,0-18.47,8.27-18.47,18.47h-45.03
			c-2.95,0-5.33,2.39-5.33,5.33v27.33c0,2.95,2.39,5.33,5.33,5.33h127c2.95,0,5.33-2.39,5.33-5.33V70.69
			C319.22,67.74,316.83,65.36,313.89,65.36z M250.39,63.86c-2.58,0-4.67-2.09-4.67-4.67s2.09-4.67,4.67-4.67s4.67,2.09,4.67,4.67
			S252.97,63.86,250.39,63.86z"/>
		<path class="st7" d="M181.56,98.02c0,2.95,2.39,5.33,5.33,5.33h127c2.95,0,5.33-2.39,5.33-5.33L181.56,70.69V98.02z"/>
	</g>
	<path class="st2" d="M259.37,29.19c-2.5-0.97-5.52-0.38-7.47,1.45c-1.95,1.83-2.73,4.82-1.92,7.37c-3.65-1.58-8.29,2.38-7.31,6.24
		c23.62,2.54,47.46,3,71.17,1.37c-0.18-2.94-2.22-5.69-4.98-6.71c-2.76-1.02-6.1-0.27-8.15,1.84c0.45-2.69,0.5-5.65-1.02-7.91
		c-1.52-2.26-5.09-3.25-7.03-1.34c3.84-4.93,1.5-12.96-3.92-16.06c-5.42-3.1-12.65-1.72-17.47,2.26
		c-4.82,3.98-7.48,10.08-8.56,16.23C261.58,32.36,260.47,30.77,259.37,29.19z"/>
	<path class="st2" d="M464.89,101.41c1.93-0.07,3.92-0.16,5.71-0.89c1.79-0.73,3.38-2.26,3.63-4.18c-3.35-1.51-7.35-1.49-10.68,0.05
		c1.04-1.74,0.67-4.19-0.84-5.55c-1.51-1.35-3.98-1.46-5.6-0.25c1.85-2.9,1.14-7.11-1.47-9.35c-2.61-2.24-6.76-2.37-9.59-0.42
		c-2.83,1.95-4.2,5.75-3.41,9.1c-0.84-2.4-3.66-3.91-6.12-3.28c-2.46,0.62-4.22,3.29-3.82,5.8c-0.58-1.48-2.47-2.28-3.93-1.66
		c-1.46,0.61-2.22,2.52-1.58,3.97c-3.92-1.19-8.57,1.64-9.3,5.68C433.43,102.62,449.21,102.02,464.89,101.41z"/>
	<path class="st2" d="M416.34,125c-0.78-1.89-2.16-3.32-4.56-2.63c-2.73,0.79-4.64,4.04-5.88,6.36c-0.57,1.06,0.91,1.88,1.59,0.93
		c0.94-1.33,2-2.51,3.17-3.63c0.52-0.5,1.13-0.93,1.8-1.19c1.36-0.53,1.72,1.93,1.92,2.74c0.23,0.95,1.53,1.29,2.2,0.58
		c0.76-0.82,1.55-1.47,2.6-1.89c1.87-0.76,2.39,1.04,2.66,2.5c0.16,0.85,1.59,0.87,1.73,0C424.45,123.28,419.81,122.84,416.34,125z"
		/>
	<path class="st2" d="M439.56,135.36c-1.37-3.19-5.1-3.44-8.03-2.48c-0.17-0.29-0.34-0.58-0.54-0.86c-0.25-0.4-0.75-0.65-1.23-0.5
		c-2.45,0.77-4.1,2.23-5.11,4.59c-0.4,0.95,0.85,1.76,1.42,0.83c0.88-1.44,1.97-2.47,3.47-3.06c0.17,0.32,0.32,0.65,0.46,0.99
		c0.19,0.42,0.85,0.7,1.28,0.52c2.83-1.18,4.4-0.7,6.71,1.17C438.9,137.3,440.01,136.41,439.56,135.36z"/>
	<path class="st2" d="M153.41,46.36c-2.56-4.56-7.63-3.53-10.51-0.35c-0.2-0.28-0.39-0.57-0.56-0.87c-0.34-0.6-1.11-0.93-1.77-0.72
		c-3.56,1.1-5.48,3.93-4.95,7.64c0.23,1.61,2.59,1.08,2.69-0.36c0.12-1.81,0.63-3.08,2.04-3.82c0.41,0.59,0.83,1.18,1.16,1.82
		c0.55,1.06,2.26,1.06,2.8,0c0.65-1.26,1.35-2.23,2.58-2.97c1.73-1.04,3.35,0.6,4.71,1.45C152.75,48.9,154.05,47.49,153.41,46.36z"
		/>
	<path class="st2" d="M165.91,31.92c-2.7-3.33-6.35-1.47-9.19,0.57c-0.44-0.39-0.88-0.77-1.29-1.2c-0.42-0.44-1.16-0.54-1.68-0.22
		c-1.62,1-4.72,4.18-2.38,6.06c0.31,0.25,0.68,0.21,0.92-0.12c0.84-1.14,0.99-2.12,1.94-2.94c0.44,0.44,0.9,0.87,1.32,1.34
		c0.4,0.45,1.27,0.59,1.77,0.23c2.4-1.77,4.13-3.3,7.22-1.95C165.73,34.22,166.74,32.94,165.91,31.92z"/>
	<path class="st2" d="M50.26,161.01c-1.95-1.32-4.2-1.34-6.4-0.05c-1.59,0.93-3,3.14-1.71,4.79c0.29,0.37,1.04,0.28,1.23-0.16
		c1.03-2.4,3.49-4.05,5.67-1.56c0.45,0.52,1.33,0.6,1.9,0.25c0.93-0.58,1.84-0.98,2.9-1.26c1.64-0.43,2.29,0.77,3.24,1.8
		c0.81,0.89,2.29,0.18,2.3-0.95C59.41,158.64,53.62,159.15,50.26,161.01z"/>
	<g class="st0">
		<path class="st8" d="M40.61,345.05c9.31,6.55,22.01,7.38,32.63,3.27c10.62-4.11,19.15-12.72,24.41-22.82s7.44-21.59,7.67-32.97
			c-5.77,5.39-11.55,10.77-17.32,16.16c7.66-24.21,7.91-50.7,0.71-75.05c-9.67,18.96-14.8,39.85-19.85,60.52
			c-1.58-30.51-8.07-60.76-19.16-89.23c-12.76,36.62-12.98,77.48-0.64,114.24c-6.72-13.07-15.99-24.81-27.15-34.38
			c1.85,17.71,8.87,34.86,19.97,48.78C41.22,337.88,39.85,340.75,40.61,345.05z"/>
		<path class="st9" d="M56.1,282.77c-2.25-17.79-3.06-35.87-5.81-53.58c-0.08-0.52-0.89-0.38-0.89,0.12
			c0,18.3,2.46,36.93,4.54,55.09c2.09,18.22,4.24,37.03,9.24,54.71c0.36,1.26,2.12,0.71,1.92-0.53
			C62.09,319.95,58.47,301.51,56.1,282.77z"/>
		<path class="st9" d="M84.46,261.23c-1.71,12.05-3.24,24.12-5.35,36.1c-2.22,12.61-5.61,24.77-9.12,37.06
			c-0.31,1.1,1.4,1.88,1.88,0.79c10.15-22.83,11.35-49.25,14.24-73.74C86.22,260.52,84.6,260.3,84.46,261.23z"/>
		<path class="st9" d="M98.07,304.88c-2.02,6.88-5.19,13.19-8.78,19.37c-3.36,5.79-7.48,11.25-10.21,17.38
			c-0.51,1.14,0.91,1.96,1.66,0.97c8.2-10.85,15.92-23.94,19.71-37.06C100.9,304,98.51,303.35,98.07,304.88z"/>
		<path class="st9" d="M57.56,334.82c-12.85-9.29-19.41-22.95-27.6-36.06c-0.27-0.44-0.96-0.04-0.69,0.4
			c7.81,12.91,14.22,28.53,27.76,36.56C57.62,336.07,58.09,335.2,57.56,334.82z"/>
		<path class="st10" d="M83.3,384.53H46.76c-1.65,0-3.05-1.19-3.33-2.81l-6.31-37.31c-0.35-2.06,1.24-3.94,3.33-3.94h49.16
			c2.09,0,3.67,1.88,3.33,3.94l-6.31,37.31C86.35,383.34,84.95,384.53,83.3,384.53z"/>
		<path class="st11" d="M92.64,346.73H37.42c-4.32,0-7.81-3.5-7.81-7.81l0,0c0-4.32,3.5-7.81,7.81-7.81h55.21
			c4.32,0,7.81,3.5,7.81,7.81l0,0C100.45,343.23,96.95,346.73,92.64,346.73z"/>
	</g>
	<g>
		<path class="st12" d="M129.72,282.28c2.69,2.89,14.68,35.15,15.92,38.46c1.24,3.31-7.03,4.55-7.03,4.55s-13.44-22.54-14.27-26.47
			C123.52,294.89,129.72,282.28,129.72,282.28z"/>
		<path class="st13" d="M127.1,294.02l-2.6,2.02c-0.22,1.12-0.3,2.09-0.15,2.78c0.74,3.51,11.56,21.89,13.84,25.74
			c0.91-1.85,0.13-4.11-0.69-6.03C134.03,310.36,130.56,302.19,127.1,294.02z"/>
		<path class="st14" d="M109.46,272.56c1.93,0,4.31-4.76,4.31-4.76l7.13,1.76c0,0-0.8,5.17,1.59,6.72c2.38,1.55-2.1,8.06-2.1,8.06
			l-8.79-0.41l-3-6.31l-0.93-2.7L109.46,272.56z"/>
		<path class="st12" d="M91.88,337.07c0,0,3.72-58.72,4.96-60.99c1.24-2.27,10.34-2.89,12.61-3.51c0,0,0,7.03,6.2,7.24
			c6.2,0.21,6.82-3.51,6.82-3.51s5.58,3.31,7.24,6c1.65,2.69-4.76,47.76-6,52.1C122.48,338.72,97.88,341,91.88,337.07z"/>
		<path class="st13" d="M106.53,332.53c0,0-7-13.17-6.67-22.17c0.33-9-2.5-18.17-2.5-18.17s-1.05,1.05-2.51,2.54
			c-1.43,17.95-2.98,42.33-2.98,42.33c2.23,1.46,7.03,2.06,12.25,2.02c0.36-0.14,0.57-0.23,0.57-0.23L106.53,332.53z"/>
		<path class="st15" d="M118.4,427.08c-1.38,0.69-2.07,3.72-0.96,5.38c1.1,1.65,12.54,1.55,13.42,0.09c1.65-2.74-5.7-4.63-7.5-5.19
			C121.57,426.8,118.4,427.08,118.4,427.08z"/>
		<path class="st14" d="M118.26,419.64c0,0,0.14,6.06,0.14,7.44c0,1.38,3.58,1.24,4.55,0.83c0.96-0.41,0.96-9.24,0.96-9.24
			L118.26,419.64z"/>
		<path class="st15" d="M79.89,427.08c-1.38,0.69-2.07,3.72-0.96,5.38c1.1,1.65,12.54,1.55,13.42,0.09c1.65-2.74-5.7-4.63-7.5-5.19
			S79.89,427.08,79.89,427.08z"/>
		<path class="st14" d="M80.98,419.64c0,0-1.09,6.06-1.09,7.44c0,1.38,3.58,1.24,4.55,0.83c0.96-0.41,2.19-9.24,2.19-9.24
			L80.98,419.64z"/>
		<path class="st16" d="M79.06,421.7c0.83,2.48,4.96,1.93,7.44,1.38c2.48-0.55,12.41-35.56,13.78-41.35
			c1.38-5.79,5.86-29.77,5.86-29.77s5.72,26.74,6.82,30.6c1.1,3.86,2.21,37.22,3.58,39.7c1.38,2.48,6.89,1.65,8.27,0.55
			c1.38-1.1,3.31-34.74,3.58-41.08c0.28-6.34-5.51-46.31-5.51-46.31s-29.6,2.64-32.81,3.03C88.68,338.62,78.24,419.22,79.06,421.7z"
			/>
		<path class="st17" d="M120.21,382.76c0-4.14-5.79-37.63-5.79-37.63L87.68,351c-3.49,22.79-9.24,68.84-8.62,70.71
			c0.32,0.96,1.14,1.46,2.17,1.69l0.31-0.1l14.27-68.23l9.34,2.19c0.6-3.15,1-5.29,1-5.29s5.72,26.74,6.82,30.6
			c1.1,3.86,2.21,37.22,3.58,39.7c0.75,1.35,2.74,1.72,4.61,1.6C120.93,414.56,120.21,386.21,120.21,382.76z"/>
		<g>
			<path class="st18" d="M181.17,301.43c0,0,40.4-5.9,42.67-3.18c2.27,2.72-32,28.37-32,28.37l-19.75-6.81l3.18-11.58L181.17,301.43
				z"/>
			<path class="st19" d="M191.84,326.62c0,0,18.84-14.1,27.66-22.5c-0.87-1.18-2.03-2.16-3.45-2.16c-1.6,0.01-2.89,1.26-4.01,2.4
				c-7.69,7.83-16.55,14.51-26.19,19.76l-0.24,0.35L191.84,326.62z"/>
			<path class="st20" d="M210.05,298c0.05,3.34,1.43,6.72,3.85,9.06c0.38,0.37,0.8,0.69,1.22,1.01c5.48-4.75,9.54-8.82,8.71-9.81
				C223.02,297.26,217.17,297.41,210.05,298z"/>
			<path class="st21" d="M213.91,307.06c0.38,0.37,0.8,0.69,1.22,1.01c5.48-4.75,9.54-8.82,8.71-9.81c-0.1-0.12-0.27-0.21-0.49-0.3
				c-3.75,2.28-7.5,4.57-11.25,6.85C212.61,305.62,213.21,306.39,213.91,307.06z"/>
			<path class="st20" d="M34.33,353.86c0,0-4.99,16.8,8.85,25.87l148.66-53.11c0,0-12.26-4.77-10.67-25.19L34.33,353.86z"/>
			<path class="st21" d="M34.33,353.86c0,0-4.99,16.79,8.85,25.87l148.66-53.11c0,0-2.23-0.87-4.66-3.45
				c-48.58,15.91-99.1,25.91-150.08,29.7L34.33,353.86z"/>
		</g>
		<path class="st14" d="M88.43,338.04c0,0,2.31,2.84,2.44,5.4c0.09,1.7-1.3,0.9-2.09-0.65c0,0,1.46,2.15,0.56,4.22
			c-0.9,2.06-4.1,1.88-5.27-0.36c-1.17-2.24,0.4-7.89,0.4-7.89L88.43,338.04z"/>
		<path class="st12" d="M98.34,274.93c-7.03,2.89-17.42,23.27-19.69,27.2c-2.27,3.93,3.72,35.56,4.76,37.42
			c1.03,1.86,4.55,0.21,6.41-0.21c1.86-0.41-0.83-30.19-0.62-31.84c0.21-1.65,8.68-12.61,10.13-14.89
			C100.77,290.34,98.34,274.93,98.34,274.93z"/>
		<path class="st14" d="M108.72,246.48c-9.74,10.28,3.97,28.24,13.16,25.87c7.14-1.84,9.88-11.31,8.41-20.89
			C128.81,241.88,115.76,239.03,108.72,246.48z"/>
		<path class="st22" d="M115.37,253.53c0,0,10.74,1.92,16.58-2.34c5.84-4.26,2.27-11.39-1.71-9.53c0,0,2.46-0.42,1.42-2.81
			c-1.05-2.38-3.96,0.88-5.84,1.78c0,0,2.45-1.18,1.11-3.47c-1.34-2.29-3.75,3.3-8.97,4.24c-5.22,0.94-8.85,2.15-10.18,3.85
			c0,0,1.55-1.66,0.2-2.55c-1.35-0.89-1.94,2.86-1.94,2.86s-2.89-0.09-3.07,0.83c-0.18,0.92,2.17,1.17,2.17,1.17
			s-2.45,6.15,0.18,14.1c2.63,7.95,6.2,7.95,8.01,7.51c1.81-0.44,1.05-5.07-1.09-5.72c-2.14-0.65-3.98-4.19-1.67-5.87
			s1.95,1.79,3.35,1.79C115.31,259.38,114.19,254.64,115.37,253.53z"/>
		<path class="st13" d="M125.26,278.11c-1.51-1.08-2.77-1.83-2.77-1.83s-0.62,3.72-6.82,3.52c-6.2-0.21-6.2-7.24-6.2-7.24
			c-0.63,0.17-1.79,0.35-3.15,0.55c0.18,4.4,3.43,8.59,7.73,9.66C118.25,283.83,122.97,281.76,125.26,278.11z"/>
		<path class="st13" d="M89.81,339.34c1.86-0.41-0.83-30.19-0.62-31.84c0.17-1.36,5.96-9.05,8.8-12.98
			c-0.36-1.46-0.63-2.33-0.63-2.33s-9.5,9.5-11.33,12.33c-1.56,2.41-0.34,27.01,1.29,35.53C88.24,339.81,89.14,339.5,89.81,339.34z"
			/>
	</g>
	<g>
		<path class="st14" d="M338.12,242.31c0,0-1.09-7.3-1.71-8.69c-0.62-1.4-2.64-0.78-2.64-0.78s-3.1-9.62-4.97-8.69
			c-1.86,0.93,1.73,8.25,1.73,8.25s-3.74,3.86-4.06,6.34c-0.31,2.48,4.97,6.52,6.52,7.14C334.55,246.5,338.12,242.31,338.12,242.31z
			"/>
		<path class="st23" d="M383.6,284.22c3.05,4.57,3.1,12.11-3.1,12.73c-6.21,0.62-27.32-19.87-31.04-22.97
			c-3.73-3.1-17.07-23.9-18.32-27.01c-1.24-3.1,6.21-6.52,8.38-5.59c2.17,0.93,14.28,19.25,17.07,21.73
			C359.38,265.59,379.87,278.63,383.6,284.22z"/>
		<path class="st24" d="M334.16,242.6c-2.03,1.13-3.66,2.79-3.02,4.37c1.24,3.1,14.59,23.9,18.32,27.01
			c2.8,2.34,15.46,14.53,24.2,20.14c2.99-2.44,5.32-5.6,6.45-9.33c-9.17-3.12-18.36-6.76-25.82-12.93
			C345.06,264.24,339.28,253.48,334.16,242.6z"/>
		<path class="st14" d="M384.89,246.59c6.88,12.38-10.86,26.37-19.17,21.8c-6.46-3.55-6.77-13.41-2.96-22.32
			C366.57,237.16,379.91,237.63,384.89,246.59z"/>
		<path class="st14" d="M347.03,344.53c0,0-6.5,4.67-5.67,6c0.83,1.33,4.67-0.33,4.67-0.33s-6.67,5.17-5.33,8
			c1.33,2.83,4.67,3,7.17,1.5s5.67-10.67,5.67-10.67L347.03,344.53z"/>
		<path class="st25" d="M384.93,429.3c1.72,0.6,2.98,4.04,1.94,6.14c-1.04,2.1-14.43,3.7-15.68,2.12c-2.35-2.95,5.97-6.28,7.98-7.19
			S384.93,429.3,384.93,429.3z"/>
		<path class="st14" d="M384.47,414.99c0,0,0.25,12.7,0.46,14.31c0.21,1.61-4,1.99-5.19,1.65c-1.19-0.34-2.02-16.24-2.02-16.24
			L384.47,414.99z"/>
		<path class="st25" d="M420.57,427.36c1.82,0.04,4.07,2.93,3.73,5.25c-0.35,2.32-12.6,7.94-14.27,6.83
			c-3.14-2.09,3.76-7.81,5.39-9.29C417.05,428.66,420.57,427.36,420.57,427.36z"/>
		<path class="st14" d="M416.99,419.36c0,0,2.9,6.54,3.59,8.01c0.69,1.47-3.2,3.12-4.44,3.16c-1.24,0.04-5.66-9.37-5.66-9.37
			L416.99,419.36z"/>
		<path class="st25" d="M370.78,348.8c0,0-0.59,28.38-0.59,32.76c0,4.39,5.06,41.86,6.23,44.5c1.17,2.63,7.31,0.88,9.36-0.29
			c2.05-1.17-1.25-36.3-1.55-40.69c-0.29-4.39,0.88-21.65,0.88-21.65L370.78,348.8z"/>
		<path class="st22" d="M392.72,333.88c0,0,5.85,35.4,6.44,40.08c0.59,4.68,20.48,44.76,20.48,47.1c0,2.34-5.56,4.68-7.9,4.68
			c-2.34,0-34.52-54.41-37.74-58.8c-3.22-4.39-4.68-26.04-5.27-28.67C368.15,335.63,392.72,333.88,392.72,333.88z"/>
		<path class="st25" d="M387.47,334.32c3.06-0.29,5.25-0.45,5.25-0.45s5.85,35.4,6.44,40.08c0.58,4.68,20.48,44.76,20.48,47.1
			c0,1.04-1.1,2.08-2.52,2.91c-7.3-13.06-26.24-47.97-27.69-54.11C387.88,363.26,387.53,339.69,387.47,334.32z"/>
		<path class="st26" d="M388.34,273.76c1.39,5.32,6.14,58.58,5.27,60.34c-0.88,1.76-22.53,6.14-24.87,4.17
			c-2.34-1.97-7.82-40.39-8.04-48.07c-0.22-7.68,6.35-14.46,7.89-16.87C370.13,270.91,387.02,268.71,388.34,273.76z"/>
		<path class="st26" d="M369.77,284.02c3.33-4.87,10.81-7.96,13.92-2.03c3.11,5.93-8.8,35.19-10.39,40.14
			c-1.59,4.96-16.94,26.61-19.53,29.09c-2.59,2.48-8.99-3.56-8.93-6.1c0.05-2.54,13.42-21.96,14.77-25.74
			C360.96,315.62,365.7,289.97,369.77,284.02z"/>
		<path class="st23" d="M383.69,281.99c-2.31-4.4-7.02-3.83-10.65-1.26c2.13,2.6,3.2,6.02,3.41,9.4c0.24,3.82-0.53,7.64-1.5,11.34
			c-4.69,17.9-14.29,34.5-27.47,47.48c-0.06,0.06-0.13,0.13-0.2,0.19c2.08,2.02,4.95,3.56,6.49,2.09
			c2.59-2.48,17.93-24.14,19.53-29.09C374.89,317.18,386.8,287.93,383.69,281.99z"/>
		<path class="st14" d="M377.55,266.88c0,0,2.69,3.38,2.94,4.13s-5.56,3.63-8.31,3.88s-3.06-1.69-2.75-2.06s0.5-2.5,0.63-3.69
			S377.55,266.88,377.55,266.88z"/>
		<path class="st22" d="M387.04,245.15c0,0,1.98-0.09,1.99-1.36c0.02-1.27-3.43-1.5-3.43-1.5s0.68-2.41-0.82-2.56
			c-1.5-0.15-1.44,1.57-1.44,1.57s-7.29-6.58-14.82-4.43c-7.53,2.15-12.5,10.71-7.7,12.16c4.8,1.45,12.8-1.28,12.8-1.28
			s2.68,4.89,3.12,7.74c0.29,1.85,1.56,1.16,1.95-1.08c0.37-2.1,5.03-0.53,3.27,4.15c-0.94,2.5-4.49,2.28-5.34,3.46
			c-0.85,1.18-0.16,4.75,0.95,5.14C381.09,268.4,391.45,256.46,387.04,245.15z"/>
	</g>
	<g>
		<path class="st14" d="M246.28,359.61c0,0,0.83,6.13-5.63,6.61l1.21,8.81l10.17,1.83l9.5-5.5l0.65-6.01c0,0-4.9,0.51-6.57-6.41
			L246.28,359.61z"/>
		<path class="st25" d="M289.98,448.77c-2.65-1.34-5.19-2.38-8.12-2.93c-2.62-0.49-3.72,2.85-2.41,4.63
			c1.59,2.15,3.25,4.25,4.78,6.44c1.93,2.77,6.36,2.19,8.16-0.34C294.48,453.62,292.89,450.24,289.98,448.77z"/>
		<path class="st14" d="M274.16,442.62c0,0,5.57,3.28,6.7,3.78c1.13,0.5,1.3,4.31-0.24,4.68c-1.54,0.37-9.39-0.71-9.39-0.71
			S272.34,442.36,274.16,442.62z"/>
		<path class="st25" d="M205.22,450.48c2.65-1.34,5.19-2.38,8.12-2.93c2.62-0.49,3.72,2.85,2.41,4.63
			c-1.59,2.15-3.25,4.25-4.78,6.44c-1.93,2.77-6.36,2.19-8.16-0.34C200.71,455.33,202.3,451.95,205.22,450.48z"/>
		<path class="st14" d="M221.04,444.33c0,0-5.57,3.28-6.7,3.78c-1.13,0.5-1.3,4.31,0.24,4.68c1.54,0.37,9.39-0.71,9.39-0.71
			S222.86,444.07,221.04,444.33z"/>
		<path class="st27" d="M240.65,366.22c0,0,3.1,7.75,10.85,7.75c7.75,0,10.68-8.61,10.68-8.61s17.91,6.37,21.01,22.39
			c3.1,16.02-0.17,38.24-0.17,38.24l-34.28,10.16l-32.9-12.75c0,0-0.17-25.67,3.62-36.52C223.26,376.04,232.9,367.77,240.65,366.22z
			"/>
		<path class="st28" d="M227.56,398.43c0,0,1.72-12.05,4.31-14.64c1.21-1.21,1.21,13.09,1.21,15.33
			C233.07,401.36,227.56,398.43,227.56,398.43z"/>
		<path class="st28" d="M275.97,398.43c0,0-1.72-12.05-4.31-14.64c-1.21-1.21-1.21,13.09-1.21,15.33
			C270.45,401.36,275.97,398.43,275.97,398.43z"/>
		<path class="st28" d="M251.85,378.62c8.49-0.94,12.38-7.54,13.99-11.6c-2.16-1.12-3.65-1.66-3.65-1.66s-2.93,8.61-10.68,8.61
			s-10.85-7.75-10.85-7.75c-1.18,0.24-2.41,0.65-3.65,1.18C238.22,371.13,242.11,379.7,251.85,378.62z"/>
		<path class="st29" d="M227.73,422.72c0,0-2.93-25.15-2.24-27.56c0.69-2.41,48.06-1.21,50.82-0.34c2.76,0.86-2.24,27.73-3.1,30.14
			c-0.86,2.41-25.67,9.65-25.67,9.65L227.73,422.72z"/>
		<path class="st30" d="M227.73,424.44c0,0-2.93-25.15-2.24-27.56c0.69-2.41,48.06-1.21,50.82-0.34c2.76,0.86-2.24,27.73-3.1,30.14
			c-0.86,2.41-25.67,9.65-25.67,9.65L227.73,424.44z"/>
		<path class="st31" d="M275.97,442.53c2.4,1.4,4.48,7.58-1.03,8.96c-5.51,1.38-58.57-7.92-68.9-16.54
			c-10.34-8.61-1.72-21.36,6.55-18.95C220.84,418.41,271.83,440.11,275.97,442.53z"/>
		<path class="st32" d="M285.61,416.69c9.36-1.21,16.36,11.89,9.99,16.88c-6.37,5-68.73,20.5-73.72,20.15
			c-5-0.34-6.03-7.92-3.96-9.3C219.98,443.04,280.27,417.38,285.61,416.69z"/>
		<path class="st2" d="M250.47,409.4c-5.62,0-5.62,8.72,0,8.72C256.1,418.12,256.1,409.4,250.47,409.4z"/>
		<ellipse class="st14" cx="251.24" cy="346.91" rx="13.96" ry="16.44"/>
		<path class="st22" d="M241.45,341.75c0,0,3.17,1.78,4.89-2.15c0,0,1.09,2.9,4.71,2.24c3.62-0.65,3.99-2.8,3.99-2.8
			s1.99,3.55,5.35,1.59c0,0,0.09,3.83,2.36,3.74c0,0-0.82,7.29,2.36,6.92c3.17-0.37,2.08-5.33,2.08-5.33s4.17-3.46,1.27-6.36
			c0,0,3.35-4.21-1.63-6.08c0,0,2.54-3.65-1.18-6.45c-3.71-2.8-5.25-0.75-5.25-0.75s-0.18-3.74-4.98-3.27
			c-4.8,0.47-4.44,3.46-4.44,3.46s-2.26-5.05-6.34-3.27c-4.08,1.78-3.26,5.33-3.26,5.33s-3.71-1.96-5.89,0.75
			c-2.17,2.71,0.36,4.21,0.36,4.21s-4.62,2.99-4.17,6.17c0.45,3.18,2.45,4.02,2.45,4.02s-1.63,1.5,0.54,4.02
			c0,0-0.09,4.11,2.45,4.39c2.54,0.28,1.81-6.26,1.81-6.26S241.72,345.21,241.45,341.75z"/>
	</g>
	<path class="st20" d="M183.71,130.2c-4.23,1.36-7.06,4.3-9.82,7.67c-2.05,2.5-4.64,5.21-6.48,8.12c-1.01-0.55-2.01-1.16-2.96-1.72
		c-1.73-1.01-4.23,1.13-2.91,2.91c1.31,1.77,3.22,3.01,4.51,4.75c1.13,1.53,2.78,2.06,4.53,1.19c3.39-1.69,5.69-5.65,8.1-8.5
		c2.81-3.33,6.02-6.28,8.53-9.86C188.79,132.52,186.2,129.4,183.71,130.2z"/>
	<path class="st20" d="M183.71,180.2c-4.23,1.36-7.06,4.3-9.82,7.67c-2.05,2.5-4.64,5.21-6.48,8.12c-1.01-0.55-2.01-1.16-2.96-1.72
		c-1.73-1.01-4.23,1.13-2.91,2.91c1.31,1.77,3.22,3.01,4.51,4.75c1.13,1.53,2.78,2.06,4.53,1.19c3.39-1.69,5.69-5.65,8.1-8.5
		c2.81-3.33,6.02-6.28,8.53-9.86C188.79,182.52,186.2,179.4,183.71,180.2z"/>
	<path class="st20" d="M183.71,230.2c-4.23,1.36-7.06,4.3-9.82,7.67c-2.05,2.5-4.64,5.21-6.48,8.12c-1.01-0.55-2.01-1.16-2.96-1.72
		c-1.73-1.01-4.23,1.13-2.91,2.91c1.31,1.77,3.22,3.01,4.51,4.75c1.13,1.53,2.78,2.06,4.53,1.19c3.39-1.69,5.69-5.65,8.1-8.5
		c2.81-3.33,6.02-6.28,8.53-9.86C188.79,232.52,186.2,229.4,183.71,230.2z"/>
	<g class="st0">
		<path class="st8" d="M414.61,345.05c9.31,6.55,22.01,7.38,32.63,3.27c10.62-4.11,19.15-12.72,24.41-22.82
			c5.26-10.1,7.44-21.59,7.67-32.97c-5.77,5.39-11.55,10.77-17.32,16.16c7.66-24.21,7.91-50.7,0.71-75.05
			c-9.67,18.96-14.8,39.85-19.85,60.52c-1.58-30.51-8.07-60.76-19.16-89.23c-12.76,36.62-12.98,77.48-0.64,114.24
			c-6.72-13.07-15.99-24.81-27.15-34.38c1.85,17.71,8.87,34.86,19.97,48.78C415.22,337.88,413.85,340.75,414.61,345.05z"/>
		<path class="st9" d="M430.1,282.77c-2.25-17.79-3.06-35.87-5.81-53.58c-0.08-0.52-0.89-0.38-0.89,0.12
			c0,18.3,2.46,36.93,4.54,55.09c2.09,18.22,4.24,37.03,9.24,54.71c0.36,1.26,2.12,0.71,1.92-0.53
			C436.09,319.95,432.47,301.51,430.1,282.77z"/>
		<path class="st9" d="M458.46,261.23c-1.71,12.05-3.24,24.12-5.35,36.1c-2.22,12.61-5.61,24.77-9.12,37.06
			c-0.31,1.1,1.4,1.88,1.88,0.79c10.15-22.83,11.35-49.25,14.24-73.74C460.22,260.52,458.6,260.3,458.46,261.23z"/>
		<path class="st9" d="M472.07,304.88c-2.02,6.88-5.19,13.19-8.78,19.37c-3.36,5.79-7.48,11.25-10.21,17.38
			c-0.51,1.14,0.91,1.96,1.66,0.97c8.2-10.85,15.92-23.94,19.71-37.06C474.9,304,472.51,303.35,472.07,304.88z"/>
		<path class="st9" d="M431.56,334.82c-12.85-9.29-19.41-22.95-27.6-36.06c-0.27-0.44-0.96-0.04-0.69,0.4
			c7.81,12.91,14.22,28.53,27.76,36.56C431.62,336.07,432.09,335.2,431.56,334.82z"/>
		<path class="st10" d="M457.3,384.53h-36.54c-1.65,0-3.05-1.19-3.33-2.81l-6.31-37.31c-0.35-2.06,1.24-3.94,3.33-3.94h49.17
			c2.09,0,3.67,1.88,3.33,3.94l-6.31,37.31C460.35,383.34,458.95,384.53,457.3,384.53z"/>
		<path class="st11" d="M466.64,346.73h-55.21c-4.32,0-7.81-3.5-7.81-7.81l0,0c0-4.32,3.5-7.81,7.81-7.81h55.21
			c4.32,0,7.81,3.5,7.81,7.81l0,0C474.45,343.23,470.95,346.73,466.64,346.73z"/>
	</g>
</g>
<g id="DESIGNED_BY_FREEPIK" class="st0">
	<g class="st33">
		<g id="XMLID_225_">
			<g id="XMLID_244_">
				<path id="XMLID_252_" class="st34" d="M260.1,465.47c-0.43,0.44-0.8,0.93-1.11,1.45l-0.47-0.24c-0.07-0.3-0.35-0.5-0.66-0.47
					c-0.33,0.04-0.57,0.34-0.53,0.67c0.04,0.33,0.34,0.57,0.67,0.53c0.07-0.01,0.13-0.03,0.18-0.05l0.45,0.23
					c-0.25,0.55-0.43,1.14-0.54,1.74l0.75,0.13c0.23-1.31,0.85-2.51,1.79-3.47L260.1,465.47z"/>
				<path id="XMLID_251_" class="st34" d="M265.59,463.16c-0.17,0-0.34,0.01-0.51,0.02l-0.07-0.63c0.19-0.15,0.3-0.39,0.27-0.64
					c-0.05-0.39-0.4-0.67-0.8-0.63c-0.39,0.05-0.67,0.4-0.63,0.8c0.03,0.25,0.19,0.46,0.4,0.56l0.07,0.62
					c-0.71,0.12-1.4,0.33-2.06,0.65l0.33,0.68c0.93-0.45,1.94-0.67,3-0.67c0.5,0,0.99,0.05,1.48,0.16l0.16-0.74
					C266.69,463.22,266.14,463.16,265.59,463.16z"/>
				<path id="XMLID_250_" class="st34" d="M272.19,465.71c0.33-0.04,0.57-0.34,0.53-0.67c-0.04-0.33-0.34-0.57-0.67-0.53
					c-0.31,0.04-0.54,0.3-0.53,0.61l-0.42,0.36c-0.42-0.43-0.89-0.81-1.41-1.14l-0.4,0.64c1.13,0.71,2.02,1.73,2.56,2.93l0.69-0.31
					c-0.25-0.55-0.57-1.07-0.94-1.54l0.4-0.35C272.06,465.72,272.13,465.72,272.19,465.71z"/>
				<path id="XMLID_249_" class="st34" d="M265.04,473.37c-0.39,0.02-0.77,0.03-1.16,0.03c-0.88,0-1.73-0.06-2.48-0.18
					c-0.39-0.06-0.85-0.15-1.27-0.29c1.05,1.86,3.07,3.13,5.39,3.13c2.86,0,5.26-1.92,5.95-4.5c-0.68,0.45-1.51,0.83-2.46,1.12
					C267.84,473.05,266.46,473.29,265.04,473.37z"/>
				<path id="XMLID_245_" class="st34" d="M265.59,464.68c-3.35,0-6.08,2.67-6.08,5.94c0,0.43,0.05,0.85,0.14,1.26
					c0.67,0.48,2.71,0.89,5.35,0.73c2.88-0.17,5.3-0.96,6.67-2.16c-0.01-0.2-0.02-0.39-0.05-0.58
					C271.24,466.91,268.65,464.68,265.59,464.68z M263.43,471.19c-1.02,0-1.85-0.83-1.85-1.85c0-1.02,0.83-1.85,1.85-1.85
					c1.02,0,1.85,0.83,1.85,1.85C265.28,470.36,264.45,471.19,263.43,471.19z M268.17,470.29c-0.75,0-1.36-0.61-1.36-1.36
					s0.61-1.36,1.36-1.36c0.75,0,1.36,0.61,1.36,1.36S268.92,470.29,268.17,470.29z"/>
			</g>
			<path id="XMLID_242_" class="st34" d="M281.6,466.55c-0.29-0.12-0.81-0.31-1.38-0.24c-0.55,0.07-0.84,0.34-0.84,1.01v0.87h2.23
				v1.72h-2.23v5.45h-1.93v-5.45h-1.34v-1.72h1.34v-0.89c0-1.68,0.9-2.78,2.57-2.78c0.64,0,1.16,0.12,1.59,0.31L281.6,466.55z"/>
			<path id="XMLID_240_" class="st34" d="M286.3,469.88c-0.18-0.03-0.36-0.05-0.53-0.05c-0.9,0-1.51,0.55-1.51,1.61v3.91h-1.93
				v-7.17h1.87v0.78c0.45-0.67,1.14-0.98,2.02-0.98c0.41,0,0.85,0.13,1.09,0.34L286.3,469.88z"/>
			<path id="XMLID_237_" class="st34" d="M293.97,471.76c0,0.22-0.01,0.49-0.04,0.65h-5.08c0.21,1.04,0.93,1.49,1.84,1.49
				c0.62,0,1.3-0.25,1.81-0.69l1.13,1.24c-0.81,0.75-1.85,1.09-3.06,1.09c-2.2,0-3.72-1.5-3.72-3.75c0-2.26,1.48-3.8,3.63-3.8
				C292.54,467.99,293.96,469.52,293.97,471.76z M288.85,471.09h3.18c-0.18-0.92-0.73-1.44-1.56-1.44
				C289.55,469.65,289.02,470.2,288.85,471.09z"/>
			<path id="XMLID_234_" class="st34" d="M301.62,471.76c0,0.22-0.02,0.49-0.04,0.65h-5.08c0.21,1.04,0.93,1.49,1.84,1.49
				c0.62,0,1.3-0.25,1.81-0.69l1.13,1.24c-0.81,0.75-1.85,1.09-3.06,1.09c-2.2,0-3.72-1.5-3.72-3.75c0-2.26,1.48-3.8,3.63-3.8
				C300.2,467.99,301.61,469.52,301.62,471.76z M296.5,471.09h3.18c-0.18-0.92-0.73-1.44-1.56-1.44
				C297.21,469.65,296.67,470.2,296.5,471.09z"/>
			<path id="XMLID_231_" class="st34" d="M309.96,471.76c0,2.15-1.5,3.77-3.47,3.77c-0.96,0-1.64-0.38-2.11-0.93v3.71h-1.92v-10.13
				h1.89v0.79c0.47-0.58,1.15-0.98,2.14-0.98C308.47,467.99,309.96,469.61,309.96,471.76z M304.29,471.76
				c0,1.13,0.75,1.98,1.84,1.98c1.14,0,1.85-0.88,1.85-1.98c0-1.1-0.71-1.98-1.85-1.98C305.03,469.79,304.29,470.63,304.29,471.76z"
				/>
			<path id="XMLID_228_" class="st34" d="M313.07,465.84c0,0.7-0.54,1.23-1.24,1.23c-0.7,0-1.23-0.53-1.23-1.23
				c0-0.7,0.53-1.24,1.23-1.24C312.53,464.59,313.07,465.14,313.07,465.84z M312.81,475.35h-1.93v-7.17h1.93V475.35z"/>
			<path id="XMLID_226_" class="st34" d="M316.03,470.74l2.7-2.55h2.37l-3.48,3.38l3.5,3.8h-2.38l-2.72-2.9v2.9h-1.93V464.7h1.93
				V470.74z"/>
		</g>
		<g>
			<path class="st34" d="M184.41,475.29v-1.05c-0.53,0.72-1.39,1.23-2.39,1.23c-1.85,0-3.15-1.41-3.15-3.71
				c0-2.26,1.29-3.72,3.15-3.72c0.95,0,1.82,0.47,2.39,1.25v-3.76h1.1v9.77H184.41z M184.41,473.37v-3.21
				c-0.4-0.62-1.24-1.14-2.12-1.14c-1.42,0-2.27,1.17-2.27,2.74c0,1.57,0.85,2.72,2.27,2.72
				C183.17,474.48,184.02,473.99,184.41,473.37z"/>
			<path class="st34" d="M186.93,471.74c0-2.05,1.46-3.71,3.49-3.71c2.14,0,3.4,1.67,3.4,3.79v0.28h-5.73
				c0.09,1.33,1.03,2.45,2.55,2.45c0.81,0,1.63-0.32,2.18-0.89l0.53,0.72c-0.7,0.7-1.65,1.08-2.81,1.08
				C188.44,475.46,186.93,473.96,186.93,471.74z M190.4,468.95c-1.51,0-2.26,1.27-2.31,2.36h4.64
				C192.72,470.25,192.01,468.95,190.4,468.95z"/>
			<path class="st34" d="M194.61,474.35l0.57-0.79c0.47,0.54,1.36,1.01,2.33,1.01c1.08,0,1.67-0.51,1.67-1.22
				c0-1.71-4.38-0.66-4.38-3.28c0-1.1,0.95-2.04,2.64-2.04c1.2,0,2.05,0.45,2.62,1.03l-0.51,0.76c-0.42-0.51-1.2-0.89-2.11-0.89
				c-0.97,0-1.57,0.48-1.57,1.11c0,1.55,4.38,0.53,4.38,3.28c0,1.19-0.95,2.14-2.78,2.14C196.31,475.46,195.32,475.11,194.61,474.35
				z"/>
			<path class="st34" d="M201.48,466.47c0-0.41,0.34-0.75,0.73-0.75c0.41,0,0.75,0.34,0.75,0.75c0,0.41-0.34,0.73-0.75,0.73
				C201.81,467.2,201.48,466.88,201.48,466.47z M201.67,475.29v-7.07h1.1v7.07H201.67z"/>
			<path class="st34" d="M204.58,477.11l0.56-0.82c0.59,0.7,1.29,0.97,2.3,0.97c1.17,0,2.27-0.57,2.27-2.12v-1.01
				c-0.51,0.72-1.38,1.26-2.37,1.26c-1.85,0-3.15-1.38-3.15-3.66c0-2.27,1.29-3.68,3.15-3.68c0.95,0,1.8,0.47,2.37,1.25v-1.07h1.1
				v6.87c0,2.34-1.64,3.08-3.37,3.08C206.24,478.16,205.42,477.93,204.58,477.11z M209.71,473.25v-3.09
				c-0.38-0.62-1.23-1.14-2.11-1.14c-1.42,0-2.27,1.13-2.27,2.7c0,1.55,0.85,2.7,2.27,2.7
				C208.48,474.41,209.33,473.87,209.71,473.25z"/>
			<path class="st34" d="M217.41,475.29v-4.63c0-1.24-0.63-1.64-1.58-1.64c-0.86,0-1.68,0.53-2.09,1.1v5.17h-1.1v-7.07h1.1v1.03
				c0.5-0.59,1.46-1.2,2.52-1.2c1.48,0,2.26,0.75,2.26,2.29v4.97H217.41z"/>
			<path class="st34" d="M219.93,471.74c0-2.05,1.46-3.71,3.49-3.71c2.14,0,3.4,1.67,3.4,3.79v0.28h-5.73
				c0.09,1.33,1.03,2.45,2.55,2.45c0.81,0,1.63-0.32,2.18-0.89l0.53,0.72c-0.7,0.7-1.66,1.08-2.81,1.08
				C221.44,475.46,219.93,473.96,219.93,471.74z M223.4,468.95c-1.51,0-2.26,1.27-2.31,2.36h4.64
				C225.72,470.25,225.02,468.95,223.4,468.95z"/>
			<path class="st34" d="M233.35,475.29v-1.05c-0.53,0.72-1.39,1.23-2.39,1.23c-1.85,0-3.15-1.41-3.15-3.71
				c0-2.26,1.29-3.72,3.15-3.72c0.95,0,1.82,0.47,2.39,1.25v-3.76h1.1v9.77H233.35z M233.35,473.37v-3.21
				c-0.4-0.62-1.25-1.14-2.12-1.14c-1.42,0-2.27,1.17-2.27,2.74c0,1.57,0.85,2.72,2.27,2.72
				C232.1,474.48,232.95,473.99,233.35,473.37z"/>
			<path class="st34" d="M239.69,475.29v-9.77h1.1v3.76c0.57-0.78,1.42-1.25,2.39-1.25c1.85,0,3.15,1.46,3.15,3.72
				c0,2.3-1.3,3.71-3.15,3.71c-1,0-1.86-0.51-2.39-1.23v1.05H239.69z M242.9,474.48c1.44,0,2.29-1.16,2.29-2.72
				c0-1.57-0.85-2.74-2.29-2.74c-0.86,0-1.73,0.53-2.11,1.14v3.21C241.17,473.99,242.04,474.48,242.9,474.48z"/>
			<path class="st34" d="M247.53,477.06c0.16,0.07,0.43,0.12,0.6,0.12c0.48,0,0.81-0.16,1.05-0.75l0.47-1.07l-2.96-7.15h1.19
				l2.36,5.8l2.34-5.8h1.2l-3.54,8.51c-0.42,1.03-1.14,1.42-2.08,1.44c-0.23,0-0.6-0.04-0.81-0.1L247.53,477.06z"/>
		</g>
	</g>
</g>
</svg>
