<?xml version="1.0" encoding="utf-8"?>
<!-- Generator: Adobe Illustrator 23.0.3, SVG Export Plug-In . SVG Version: 6.00 Build 0)  -->
<svg version="1.1" xmlns="http://www.w3.org/2000/svg" xmlns:xlink="http://www.w3.org/1999/xlink" x="0px" y="0px"
	 viewBox="0 0 750 500" style="enable-background:new 0 0 750 500;" xml:space="preserve">
<style type="text/css">
	.st0{display:none;}
	.st1{display:inline;fill:#FFFFFF;}
	.st2{display:inline;fill:#E9EEF8;}
	.st3{fill:#4E5EAA;}
	.st4{fill:#F48B7F;}
	.st5{fill:#EF5760;}
	.st6{fill:#2C3693;}
	.st7{fill:#F16E6A;}
	.st8{fill:#49303B;}
	.st9{fill:#3A2530;}
	.st10{fill:#FFFFFF;}
	.st11{fill:#F36B21;}
	.st12{fill:#F05223;}
	.st13{display:inline;}
	.st14{fill:#BCE3E6;}
	.st15{fill:#FFC961;}
	.st16{fill:#F82100;}
	.st17{display:inline;fill:#49303B;}
	.st18{display:inline;fill:#007CA8;}
	.st19{fill:#D40000;}
	.st20{display:inline;fill:#F48B7F;}
</style>
<g id="BACKGROUND" class="st0">
	<rect x="125" class="st1" width="500" height="500"/>
	<rect class="st2" width="750" height="500"/>
</g>
<g id="OBJECTS">
	<g>
		<g>
			<g>
				<g>
					<path class="st3" d="M667.28,146.31c1.58,7.29-41.18,81.89-59.62,119.59c-30.9-19.96-36.56-70.99-39.37-74.69
						c6.06-21.88,39.81-74.18,43.66-74.47c3.84-0.3,5.77,0.15,12.42,5.32c6.65,5.17,15.67,13.9,15.67,13.9
						S666.31,141.83,667.28,146.31z"/>
				</g>
				<g>
					<g>
						<path class="st4" d="M713.13,183.94c-12.13,19.37-26.4,41.95-38.96,36.84c-5.54-4.04-9.45-15.33-11.88-24.82
							c-2.05-8.03-3.03-14.78-3.03-14.78l19.6-3.62l3.53,13.21l1.36,5.1l23.43-17.67C707.17,178.18,710.57,182.01,713.13,183.94z"/>
						<path class="st5" d="M682.38,190.76l-20.09,5.19c-2.05-8.03-3.03-14.78-3.03-14.78l19.6-3.62L682.38,190.76z"/>
						<g>
							<path class="st3" d="M684.23,181.05c-0.49,0.98-2.81,2.07-2.81,2.07s0.84,3.79,0.94,4.09c0.1,0.29-22.07,2.96-22.07,2.96
								l-0.59-3.65c0,0-1.87-0.69-2.76-1.97c-0.89-1.28-2.07-27.69-1.58-43.66c4.34,0.3,11.33,2.91,14.68,5.86
								C673.38,149.71,684.72,180.06,684.23,181.05z"/>
							<path class="st6" d="M682.35,187.21c0.1,0.29-22.07,2.96-22.07,2.96l-0.59-3.65l21.73-3.4
								C681.42,183.12,682.25,186.91,682.35,187.21z"/>
						</g>
					</g>
					<g>
						<path class="st4" d="M711.13,186.28c-3.32-1.31-5.48-4.35-6-7.23c-0.08-0.27-0.15-0.54-0.23-0.82
							c-0.69-2.51-0.22-4.98,0.26-5.75c0.47-0.77,4.73-3.19,4.73-3.19s2.03-3.81,2.95-3.92c0.93-0.12,1.22,2.3,0.55,3.83
							c-0.67,1.53-3.72,3.98-3.72,3.98s0.31,0.77,0.36,0.88c0.32-0.08,0.63-0.16,0.93-0.25c1.68-0.5,3.05-1.17,3.45-1.54
							c2.39-2.21,6.74-7.2,7.24-7.5c0.5-0.29,1.08,0.49,0.9,1.78c-0.18,1.27-2.41,4.6-4.42,6.63c-1.09,1.1-2.25,2.09-2.17,2.05
							c0.03-0.02,0.18,0.5,0.18,0.5s2.48-1.59,3.73-2.53c1.9-1.43,4.46-4.8,5.11-4.48s0.87,1,0.37,2.17
							c-0.63,1.47-4.58,5.78-8.24,7.89c0.16,0.58,0.16,0.58,0.16,0.58s4.26-2.35,5.67-3.64c1.41-1.29,3.45-3.61,4.03-3.53
							c0.58,0.09,0.83,1.36-0.55,3.37c-1.38,2.01-3.8,3.92-4.81,4.69c-1,0.77-3.19,2.12-3.19,2.12s1.82,0.2,3.63-0.88
							c3.41-2.47,4.89-3.21,5.22-2.77c0.33,0.44,0.24,1.19-1.41,2.87c-1.65,1.67-2.76,2.37-3.87,3.09
							C720.92,185.38,715.19,187.88,711.13,186.28z"/>
						<path class="st7" d="M709.58,180.36c0,0,1.26-1.72,1.36-2.73c0.1-1.01-0.89-3.57-0.89-3.57c0.32-0.08,0.63-0.16,0.93-0.25
							c0.5,0.82,1.32,2.64,0.95,3.8C711.45,179.14,709.58,180.36,709.58,180.36z"/>
						<path class="st5" d="M715.43,174.3c0,0,0.74,1.84,1.23,3.19c0.49,1.35,1.9,5.58,1.9,5.58s0.05-0.8-0.16-1.91
							C718.18,180.06,716.99,175.99,715.43,174.3z"/>
					</g>
				</g>
				<g>
					<g>
						<g>
							<path class="st7" d="M668.63,121.93c3.6,0.36,2.65,3.76,1.21,5.37c-1.44,1.62-2.73,3.34-6.34,2.8
								c-1.61-0.24-1.81-1.25-1.81-1.25S664.64,121.54,668.63,121.93z"/>
							<path class="st5" d="M668.65,127.29c0,0,1.96-2.42,1.2-3.62c-0.76-1.2-3.45,0.45-5.37,2.66c0.71-0.29,1.66,0.51,1.23,1.15
								c-0.43,0.63-1.25,1.21-2.6,1.3c1.61,0.66,3.55-0.26,3.97-1.26c0.42-1.01-1.33-1.71-1.33-1.71s2.2-1.8,2.84-1.3
								C669.23,125.01,668.65,127.29,668.65,127.29z"/>
						</g>
						<g>
							<path class="st4" d="M651.26,141.28c0,0-6.14,9.39-10.94,9.02c-4.81-0.37-6.73-11.9-6.87-14.49
								c-0.15-2.59,1.55-3.77,1.55-3.77s0,0,0.81,0.37c0.46-0.41,1.42-2.02,2.5-3.98c2.18-3.98,4.84-9.43,4.84-9.43
								s4.63,11.86,8.18,16.44c-1.41,2.66-1.85,3.03-1.7,4.21c0,0.04,0.01,0.07,0.02,0.11
								C649.87,140.87,651.26,141.28,651.26,141.28z"/>
							<path class="st7" d="M649.64,139.66c0,0.04,0.01,0.07,0.02,0.11c-1.68-0.48-3.63-1.33-5.64-2.82
								c-2.95-2.18-4.72-5.76-5.71-8.51c2.18-3.98,4.84-9.43,4.84-9.43s4.63,11.86,8.18,16.44
								C649.93,138.1,649.49,138.47,649.64,139.66z"/>
							<path class="st6" d="M638.31,128.43c0,0-3.78,6.94-3.79,7.93c-0.09,6.18,2.94,10.39,5.8,13.93
								c-0.85,0.37-2.25-0.26-3.92-1.74c-2.92-0.11-6.39,1.66-6.8,2.99c-0.85-4.73-0.37-12.79,0.74-16.22
								c1.11-3.44,1.93-4.06,3.05-4.84C635.24,129.2,638.31,128.43,638.31,128.43z"/>
							<path class="st6" d="M640.32,150.3c0,0,0.84,1.03,2.02,1.68c1.18,0.64,3.01,0.05,3.01,0.05s1.72,1.68,2.07,5.12
								c3.45-3.25,6.26-12.66,6.16-14.98c-0.1-2.32-2.99-5.33-2.99-5.33s-1.48,1.85-1.13,3.28c0.23,0.97,1.17,1.27,1.17,1.27
								S644.66,149.81,640.32,150.3z"/>
						</g>
						<g>
							<path class="st8" d="M642.37,114.81c0,0-1.77-5.68-0.14-9.65c1.6-3.89,6.88-6.17,6.88-6.17s-2.98-0.07-2.55-0.64
								c0.43-0.57,3.83-0.43,3.83-0.43s-1.92-1.77-1.42-2.27c0.5-0.5,2.98,1.92,2.98,1.92s1.28-3.05,1.92-2.84
								c0.64,0.21-0.14,2.63-0.14,2.63s5.54-0.85,9.37,1.28c3.83,2.13,9.51,8.37,13.2,14.9c0.43,2.27-2.84,0.5-2.84,0.5
								s2.84,4.54,1.99,4.54c-0.85,0-3.55-1.85-3.55-1.85s1.78,3.57,0.64,3.48c-0.92-0.07-2.13-1.49-2.13-1.49s-0.85,2.91-3.48,4.76
								S645.71,123.39,642.37,114.81z"/>
							<g>
								<g>
									<g>
										<g>
											<path class="st4" d="M669.17,117.61c-0.03,0.15-0.27,0.7-0.64,1.51c-1.1,2.43-3.39,7.11-5.14,9.57
												c-3.4,4.78-6.24,9.1-11.7,8.36c-3.72-0.51-9.59-4.78-10.99-10.4c-1.09-4.35,0.05-9.11,1.72-13.38
												c0.33-0.86,0.84-1.62,1.5-2.23c0.96-0.92,2.21-1.52,3.57-1.67h0.03l-0.68,1.07c2.99-0.77,5.68-2.67,7.39-5.25
												c0.8,4.4,3.68,8.39,7.61,10.54l-0.7-2.78c2.68,2.17,4.72,3.53,8.05,4.5C669.2,117.45,669.19,117.52,669.17,117.61z"/>
										</g>
									</g>
								</g>
							</g>
							<path class="st7" d="M669.17,117.61c-0.03,0.15-0.27,0.7-0.64,1.51c-2.88-1-5.62-3.47-5.62-3.47s0.04,0.18,0.35,2.02
								c-7.71-1.45-9.68-9.5-9.68-9.5s-0.78,1.67-3.33,2.94c-2.53,1.27-5.95,1.1-5.95,1.1s0.53-0.67,1.14-1.36
								c-0.55,0.06-1.06,0.13-1.52,0.21c0.96-0.92,2.21-1.52,3.57-1.67h0.03l-0.68,1.07c2.99-0.77,5.68-2.67,7.39-5.25
								c0.8,4.4,3.68,8.39,7.61,10.54l-0.7-2.78c2.68,2.17,4.72,3.53,8.05,4.5C669.2,117.45,669.19,117.52,669.17,117.61z"/>
						</g>
						<g>
							<path class="st4" d="M641.58,108.17c-3.36-2.49-5.19,1.16-5.22,3.66c-0.03,2.5-0.26,4.99,3.25,7.33
								c1.56,1.04,2.53,0.33,2.53,0.33S645.31,110.94,641.58,108.17z"/>
							<path class="st5" d="M637.4,112.75c0,0,0.2-3.59,1.79-4.03c1.59-0.44,2.61,3.07,2.53,6.45c-0.39-0.8-1.83-0.85-1.94,0.03
								c-0.12,0.88,0.13,2.01,1.22,3.14c-1.89-0.69-2.84-2.98-2.42-4.17c0.42-1.19,2.47-0.43,2.47-0.43s-0.49-3.25-1.43-3.32
								S637.4,112.75,637.4,112.75z"/>
						</g>
					</g>
					<g>
						<g>
							<g>
								<path class="st8" d="M655.41,116.53c0,0-0.65-1.6-2.08-2.29c-1.52-0.73-3.04-0.34-3.04-0.34s1.56-1.98,3.88-1.1
									C656.43,113.65,655.41,116.53,655.41,116.53z"/>
							</g>
							<path class="st9" d="M653,120.09l-4.1-3.97c0,0,2.24-0.74,3.84,1.31C653.81,118.8,653,120.09,653,120.09z"/>
						</g>
						<g>
							<g>
								<path class="st8" d="M664.71,122.36c0,0-0.57-1.63-1.97-2.39c-1.49-0.8-3.03-0.48-3.03-0.48s1.65-1.9,3.93-0.92
									C665.85,119.54,664.71,122.36,664.71,122.36z"/>
							</g>
							<path class="st9" d="M663.7,124.31l-5.53-1.02c0,0,1.43-1.83,3.87-1.03C663.66,122.81,663.7,124.31,663.7,124.31z"/>
						</g>
						<g>
							<path class="st5" d="M659.44,118.28c0,0-3.46,0.7-3.92,2.92c-0.46,2.23,0.99,3.66,0.99,3.66s-0.2-1.86,0.18-3.4
								C657.08,119.93,659.44,118.28,659.44,118.28z"/>
							<path class="st5" d="M654.53,124.75c0.31,0.04,0.47-0.35,0.22-0.53c-0.78-0.56-1.89-1.27-2.18-0.94
								C652.19,123.72,652.79,124.53,654.53,124.75z"/>
						</g>
						<g>
							<path class="st8" d="M648.15,129.1c0.9,1.87,3.08,2.5,4.9,2.17c0.05-0.01,0.09-0.02,0.14-0.03c2.58-0.54,3.24-2.48,2.83-3.65
								c-0.04-0.11-0.14-0.18-0.22-0.25c-0.73-0.68-1.66-0.21-2.99-0.61c-2.7-0.82-2.59-2.24-3.79-1.76
								c-0.09,0.04-0.18,0.09-0.27,0.14c-0.6,0.39-0.96,1.2-1,2.11C647.73,127.84,647.85,128.5,648.15,129.1z"/>
							<path class="st5" d="M648.15,129.1c0.9,1.87,3.08,2.5,4.9,2.17c-0.19-0.76-0.83-2.3-2.77-2.03
								c-0.49-1.23-1.19-2.28-2.53-2.02C647.73,127.84,647.85,128.5,648.15,129.1z"/>
							<path class="st10" d="M648.76,125.12c0.08,0.42,0.26,0.96,0.75,1.48c1.77,1.93,4.93,1.95,5.72,1.52
								c0.38-0.21,0.46-0.44,0.58-0.78c-0.73-0.68-1.66-0.21-2.99-0.61c-2.7-0.82-2.59-2.24-3.79-1.76
								C648.93,125.02,648.84,125.07,648.76,125.12z"/>
							<path class="st5" d="M656.02,127.6c0,0-0.3-0.35-1.05-0.34c-0.74,0.01-1.57,0.23-2.76-0.15c-1.19-0.38-2.29-1.91-2.69-1.99
								c-0.4-0.08-0.77,0-0.77,0s0.63-0.52,1.3-0.35c0.68,0.17,1.36,1.37,2.56,1.69C653.81,126.78,655.57,126.2,656.02,127.6z"/>
						</g>
						<g>
							<g>
								<path class="st7" d="M644.42,119.95c1.09-1.17,5.32,1.77,4.6,2.57C647.81,123.86,643.33,121.11,644.42,119.95z"/>
								<path class="st7" d="M658.14,127.11c0.63-1.3,5.08,0.1,4.67,0.99C662.13,129.59,657.51,128.41,658.14,127.11z"/>
							</g>
							<g>
								<path class="st7" d="M647.98,132.06c1.06-0.62,4.02,0.97,3.61,2.54C651.3,135.18,646.47,132.94,647.98,132.06z"/>
							</g>
						</g>
					</g>
				</g>
			</g>
			<g>
				<g>
					<path class="st4" d="M731.9,297.3c0,0-19.8,39.11-43.9,48.49c-4.01,0.82-11.85-4.7-19.65-11.8c-4.83-4.4-5.21-11.88-0.83-16.74
						l0,0c4.87-5.41,13.42-5.21,18.03,0.43c1.55,1.9,2.48,3.08,2.48,3.08l36.18-27.46L731.9,297.3z"/>
					<g>
						<path class="st5" d="M722.66,287.25c0,0-1.65,1.28-0.25,6.87c1.4,5.59,14.8,9.31,14.96,0.14
							C737.52,285.08,725.34,284.77,722.66,287.25z"/>
						<path class="st7" d="M728.12,282.61c0.07-0.16,1.38-1.44,2.71-0.73c1.33,0.71,2.01,2.11,2.01,2.11s1.25-0.44,2.72,0.41
							c1.45,0.84,1.03,2.38,1.03,2.38s1.92,0.51,2.3,2.16c0.38,1.65-0.4,2.64-0.4,2.64s0.91,0.57,0.95,2.29
							c0.04,1.73-2.02,3.48-3.64,4.07c-1.61,0.59-2.74,0.35-3.36-0.3c-0.61-0.65-0.16-2.06-0.16-2.06s-1.82,0.54-2.33-0.9
							c-0.51-1.44-0.33-1.73-0.33-1.73s-0.39,0.58-1.63-0.25C726.75,291.87,725.4,288.68,728.12,282.61z"/>
						<path class="st4" d="M728.71,295.07c-0.98,2.16-4.32,2.41-5.7,0.48c-0.93-1.3-1.6-3.72-1.47-5.31
							c0.37-4.62,2.19-6.87,3.38-8.92c1.19-2.05,5.84-8.03,8.42-7.38c2.04,0.63-1.18,3.25-4.32,7.82
							c-2.8,5.92,0.86,10.68-0.27,13.24C728.74,295.02,728.72,295.04,728.71,295.07z"/>
						<path class="st4" d="M723.54,294.92c0.13,2.41,3.17,2.85,5.49,2.21c0.31-0.08,0.59-0.21,0.82-0.38
							c1.24-0.94,1.71-1.76,1.75-2.79c0.05-1.03-0.82-4.23-0.82-4.23s2.9,1.57,3.78,1.84c0.88,0.27,1.99,0.45,2.76-0.31
							c0.78-0.76,1.07-1.57,0.62-1.9c-0.45-0.33-3.06-1.38-3.8-1.93c-0.74-0.54-3.75-2.89-5.02-2.78c-1.26,0.12-3.24,0.62-4.04,2.32
							C724.58,288.08,723.28,290.02,723.54,294.92z"/>
					</g>
					<path class="st11" d="M661.54,289.4c0,0,6.74,5.46,10.65,9.79c5.11,5.68,10.65,12.49,14.05,16.32
						c-15.05,15.05-20.72,18.74-20.72,18.74s-13.61-16.05-17.46-23.42C643.08,301.32,650.32,286.84,661.54,289.4z"/>
				</g>
				<path class="st8" d="M667.88,271.18c-8.83,10.32-18.33,18.48-31.82,22.38c-12.48,3.61-26.13,3.03-38.27-1.59
					c-9.8-3.73-17.38-14.52-19.18-24.62c-1.4-7.87,0.23-16.46,5.33-22.61c5.1-6.15,13.87-9.38,21.5-7.01
					c3.93,1.22,7.3,3.74,10.79,5.91c3.49,2.17,7.41,4.08,11.52,3.85c7.12-0.4,12.24-6.85,18.72-9.82c4.69-2.15,10.22-2.4,15.08-0.68
					c2.69,0.95,5.15,2.48,7.16,4.51c7.9,7.96,7.07,20.24,0.27,28.36C668.61,270.32,668.25,270.75,667.88,271.18z"/>
				<g>
					<g>
						<g>
							<g>
								<path class="st4" d="M654.56,284.67c0,0-4.93,12.52-16.95,8.87c-12.02-3.94-8.28-22.96-8.28-22.96s1.76,1.04,4.58,2.02
									c1.32,0.46,2.76-0.15,3.38-1.4c0.72-1.42,2.07-3.97,3.37-6.38c1.68-3.13,3.28-6.04,3.28-6.04l9.94,12.89
									c0,0-2.38,3.21-3.62,5.94c-0.01,0.03-0.02,0.05-0.04,0.08c-0.56,1.24-0.86,2.38-0.59,3.05
									C650.52,282.9,654.56,284.67,654.56,284.67z"/>
							</g>
							<path class="st7" d="M653.87,271.67c0,0-2.38,3.21-3.62,5.94c-3.98-0.98-5.77-3.31-7.53-5.95c-1.06-1.59-2.01-5.04-2.07-6.84
								c1.68-3.13,3.28-6.04,3.28-6.04L653.87,271.67z"/>
						</g>
						<g>
							<g>
								<path class="st4" d="M668.92,262.8c-0.08,0.29-0.19,0.57-0.33,0.84c-3.33,6.37-7.45,11.26-12.04,12.89
									c-3.2,1.13-10.8-3.62-13.26-10.33c-1.46-3.98-0.23-9.67,0.74-12.97c0.47-1.6,0.87-2.64,0.87-2.64s6.86,1.43,12.43-3.74
									c0.1,6.26,5.33,8.48,9.42,10.74C668.62,258.63,669.49,260.81,668.92,262.8z"/>
								<path class="st7" d="M668.92,262.8c-2.98-3.19-8.46-4.21-10.55-6.13c-1.86-1.71-2.74-5.1-2.74-5.1s-1.92,1.55-5.77,2.37
									c-2.56,0.54-4.7-0.16-5.84-0.7c0.47-1.6,0.87-2.64,0.87-2.64s6.86,1.43,12.43-3.74c0.1,6.26,5.33,8.48,9.42,10.74
									C668.62,258.63,669.49,260.81,668.92,262.8z"/>
							</g>
							<g>
								<g>
									<path class="st8" d="M650.6,256.37c0.97-0.48,2.16,0.08,2.44,1.13c0.34,1.32-0.73,2.5-2.07,2.09
										c-1.39-0.43-1.78-2.41-0.46-3.16C650.54,256.4,650.57,256.38,650.6,256.37z"/>
									<path class="st8" d="M654.93,255.77c0,0-1.01-1.4-2.57-1.73c-1.65-0.35-3.04,0.4-3.04,0.4s1.04-2.29,3.5-2
										C655.22,252.74,654.93,255.77,654.93,255.77z"/>
								</g>
								<g>
									<path class="st8" d="M661.32,261c0.97-0.48,2.16,0.08,2.44,1.13c0.34,1.32-0.73,2.5-2.07,2.09
										c-1.39-0.43-1.78-2.41-0.46-3.16C661.26,261.03,661.29,261.01,661.32,261z"/>
									<path class="st8" d="M666.15,261.69c0,0-0.57-1.63-1.97-2.39c-1.49-0.8-3.03-0.48-3.03-0.48s1.65-1.9,3.93-0.92
										C667.3,258.87,666.15,261.69,666.15,261.69z"/>
								</g>
								<g>
									<path class="st5" d="M659.65,258.35c0,0-2.77,1.86-2.92,3.84c-0.18,2.25,1.43,3.4,1.43,3.4s-0.18-1.11-0.25-2.89
										C657.85,261.25,659.65,258.35,659.65,258.35z"/>
									<path class="st5" d="M657.17,265.45c-1.13-0.79-2.98-1.25-3.06-0.57C654.04,265.56,655.25,265.49,657.17,265.45z"/>
								</g>
								<path class="st5" d="M650.66,264.11c0,0,0.43,1.94,2.37,3.52c1.94,1.58,4.66,1.65,4.66,1.65s-3.23,2.08-6.24-0.43
									C649.66,267.36,650.66,264.11,650.66,264.11z"/>
								<path class="st7" d="M649.54,270.88c1.06-0.62,4.02,0.97,3.61,2.54C652.86,274,648.04,271.76,649.54,270.88z"/>
								<path class="st7" d="M645.98,258.77c1.1-1.17,5.32,1.77,4.6,2.57C649.37,262.68,644.89,259.93,645.98,258.77z"/>
								<path class="st7" d="M659.34,266.37c0.63-1.3,5.08,0.1,4.67,0.99C663.32,268.85,658.7,267.68,659.34,266.37z"/>
							</g>
							<g>
								<path class="st4" d="M670.3,264.31c3.31,0.91,1.88,3.94,0.28,5.23c-1.6,1.28-3.09,2.69-6.39,1.61
									c-1.47-0.48-1.5-1.46-1.5-1.46S666.62,263.3,670.3,264.31z"/>
								<path class="st5" d="M669.47,269.33c0,0,2.22-1.95,1.7-3.2c-0.52-1.25-3.31-0.13-5.45,1.63c0.72-0.16,1.48,0.75,0.97,1.27
									c-0.51,0.52-1.36,0.93-2.65,0.8c1.41,0.87,3.36,0.32,3.92-0.55s-0.97-1.82-0.97-1.82s2.35-1.33,2.87-0.76
									C670.37,267.28,669.47,269.33,669.47,269.33z"/>
							</g>
							<g>
								<path class="st4" d="M641.77,250.95c-3.38-1.69-4.43,1.84-4.06,4.07c0.37,2.23,0.55,4.47,4.04,6.01
									c1.55,0.68,2.3-0.1,2.3-0.1S645.53,252.82,641.77,250.95z"/>
								<path class="st5" d="M638.77,255.67c0,0-0.38-3.23,0.96-3.87c1.34-0.64,2.8,2.32,3.26,5.34c-0.47-0.65-1.76-0.47-1.72,0.33
									c0.03,0.8,0.43,1.76,1.57,2.6c-1.79-0.32-2.99-2.2-2.8-3.33c0.19-1.12,2.13-0.77,2.13-0.77s-0.94-2.82-1.79-2.73
									C639.54,253.33,638.77,255.67,638.77,255.67z"/>
							</g>
						</g>
					</g>
				</g>
				<g>
					<g>
						<g>
							<path class="st11" d="M629.33,270.58c0,0-11.96-8.75-18.82-7.41c-6.86,1.34-29.84,39.81-42.02,71.82l39.84,61.94
								c0,0,55.15-84.21,57.24-102.65c-0.12-3.54-11.01-9.61-11.01-9.61s-4.52,13.26-17.35,10.05
								C628.35,292.51,629.33,270.58,629.33,270.58z"/>
						</g>
						<path class="st12" d="M628.15,268.96l3.15,1.23c0,0-2.81,14.63,3.84,20.4c6.65,5.77,14.04-0.15,15.97-2.51
							c1.92-2.37,2.52-4.87,2.52-4.87l2.96,1.92c0,0-4.84,11.58-13.27,11.58c-8.43,0-12.03-3.91-14.23-9.23
							C625.54,278.91,628.15,268.96,628.15,268.96z"/>
					</g>
				</g>
			</g>
			<g class="st0">
				<g class="st13">
					<g>
						<g>
							<rect x="392.28" y="97.06" class="st10" width="216.05" height="308.23"/>
							<path class="st14" d="M608.33,107.6v26.14h-2.68c-4.47,0-8.09-3.62-8.09-8.09v-8.45c0-3.39,2.11-6.42,5.29-7.59L608.33,107.6
								z"/>
							<path class="st14" d="M608.33,238.43v26.14h-2.68c-4.47,0-8.09-3.62-8.09-8.09v-8.45c0-3.39,2.11-6.42,5.29-7.59
								L608.33,238.43z"/>
						</g>
					</g>
				</g>
				<g class="st13">
					<path class="st4" d="M600.86,127.31c0,0.04,0,0.09,0.01,0.13c0.15,1.38,1.38,1.33,1.97,1.33c0.59,0,9.56,0.3,10.35-0.15
						c0.54-0.3,0.76-1.46,0.27-2.58c-0.22-0.51-0.6-1.01-1.16-1.41c0.52-1.19,0.7-2.16,0.49-3.03c-0.15-0.61-0.48-1.18-1.03-1.75
						c0.24-0.56,0.41-1.26,0.19-1.93c-0.15-0.45-0.47-0.89-1.06-1.27c0.94-1.63,0.12-2.83-1.16-3.27c-1.28-0.44-6.88,0.66-7.85,2.81
						c-0.69,1.53-0.01,2.28-0.01,2.28s0,0,0,0c-0.05,0.05-0.84,0.82-0.8,1.59c0,0.11,0.02,0.22,0.06,0.33
						c0.35,0.89,0.79,1.53,0.79,1.53s-0.72,0.6-0.76,1.68c-0.01,0.15,0,0.31,0.02,0.49c0.1,0.69,0.98,1.43,0.98,1.43
						S600.81,126.03,600.86,127.31z"/>
					<path class="st7" d="M600.86,127.31c0.78-0.33,1.79-0.65,3.11-0.9c3.55-0.67,7.12-0.86,9.48-0.36
						c-0.22-0.51-0.6-1.01-1.16-1.41c0,0-4.48-0.84-10.15,0.89C602.15,125.52,600.81,126.03,600.86,127.31z"/>
					<path class="st7" d="M601.14,123.61c2.07-0.92,4.92-1.95,7.28-2.08c1.79-0.1,3.26-0.03,4.38,0.07
						c-0.15-0.61-0.48-1.18-1.03-1.75c0,0-3.53-1.28-9.86,2.07C601.9,121.92,601.18,122.52,601.14,123.61z"/>
					<path class="st7" d="M601.05,120.07c0.83-0.42,2.08-1.24,3.57-1.62c2.98-0.76,5.97-1.02,7.33-0.52
						c-0.15-0.45-0.47-0.89-1.06-1.27c0,0-3.86-0.5-9.03,1.82c0,0,0,0,0,0C601.8,118.52,601.02,119.3,601.05,120.07z"/>
				</g>
				<g class="st13">
					<path class="st4" d="M600.28,259c0,0.04,0,0.09,0.01,0.13c0.15,1.38,1.38,1.33,1.97,1.33c0.59,0,9.56,0.3,10.35-0.15
						c0.54-0.3,0.76-1.46,0.27-2.58c-0.22-0.51-0.6-1.01-1.16-1.41c0.52-1.19,0.7-2.16,0.49-3.03c-0.15-0.61-0.48-1.18-1.03-1.75
						c0.24-0.56,0.41-1.26,0.19-1.93c-0.15-0.45-0.47-0.89-1.06-1.27c0.94-1.63,0.12-2.83-1.16-3.27c-1.28-0.44-6.88,0.66-7.85,2.81
						c-0.69,1.53-0.01,2.28-0.01,2.28s0,0,0,0c-0.05,0.05-0.84,0.82-0.8,1.59c0,0.11,0.02,0.22,0.06,0.33
						c0.35,0.89,0.79,1.53,0.79,1.53s-0.72,0.6-0.76,1.68c-0.01,0.15,0,0.31,0.02,0.49c0.1,0.69,0.98,1.43,0.98,1.43
						S600.23,257.72,600.28,259z"/>
					<path class="st7" d="M600.28,259c0.78-0.33,1.79-0.65,3.11-0.9c3.55-0.67,7.12-0.86,9.48-0.36c-0.22-0.51-0.6-1.01-1.16-1.41
						c0,0-4.48-0.84-10.15,0.89C601.57,257.21,600.23,257.72,600.28,259z"/>
					<path class="st7" d="M600.56,255.29c2.07-0.92,4.92-1.95,7.28-2.08c1.79-0.1,3.26-0.03,4.38,0.07
						c-0.15-0.61-0.48-1.18-1.03-1.75c0,0-3.53-1.28-9.86,2.07C601.33,253.61,600.61,254.21,600.56,255.29z"/>
					<path class="st7" d="M600.47,251.76c0.83-0.42,2.08-1.24,3.57-1.62c2.98-0.76,5.97-1.02,7.33-0.52
						c-0.15-0.45-0.47-0.89-1.06-1.27c0,0-3.86-0.5-9.03,1.82c0,0,0,0,0,0C601.23,250.21,600.44,250.99,600.47,251.76z"/>
				</g>
			</g>
		</g>
		<g>
			<g class="st0">
				<g class="st13">
					<path class="st9" d="M69.5,111.5c-0.41,0.18-8.2,0.73-11.25,3.28c-5.89,4.93-5.24,18.81-1.78,24.81
						c4.55,7.86,20.4,13.01,30.47,6.13c7.97-8.12,9.43-23.78,6.07-29.47c-3.36-5.69-13.45-10.2-17.04-8.89
						C72.38,108.67,69.5,111.5,69.5,111.5z"/>
					<g>
						<g>
							<g>
								<path class="st4" d="M106.87,158.97c0.22,2.8-25.74,16.38-25.74,16.38s-10.92-10.7-12.17-19.03
									c3.27-1.35,6.09-2.65,8.06-3.6c1.06-0.51,1.74-1.49,1.91-2.58c0.1-0.64,0.02-1.31-0.26-1.94l-3.14-7.01l8.85-13.06
									c0,0,0,0,0,0c0.07,0.19,2.09,5.71,4.34,10.35c0.22,0.46,0.45,0.91,0.68,1.35c0.69,1.34,1.39,2.54,2.05,3.43
									c0.78,1.06,2.32,1.21,3.31,0.34c2.13-1.86,5.05-5.51,6.22-7.07C103.18,140.53,106.64,156.17,106.87,158.97z"/>
								<path class="st7" d="M88.71,138.49c-0.67,2.82-1.77,6.15-3.75,8.24c-2.07,2.18-4.44,3.08-6.04,3.41
									c0.1-0.64,0.02-1.31-0.26-1.94l-3.14-7.01l8.85-13.06c0,0,0,0,0,0C84.44,128.33,86.46,133.86,88.71,138.49z"/>
								<path class="st7" d="M75.81,157.68c-1.06,0.52,7.11,1.5,12.58-0.89c5.47-2.39,10.45-9.98,9.92-10.37s-10.04,9.09-10.04,9.09
									S76.84,157.18,75.81,157.68z"/>
							</g>
							<g>
								<g>
									<path class="st4" d="M60.65,137.57c-3.19,0.79-1.89,3.72-0.38,4.99c1.5,1.26,2.9,2.64,6.07,1.68
										c1.41-0.43,1.46-1.37,1.46-1.37S64.2,136.69,60.65,137.57z"/>
									<path class="st5" d="M61.34,142.39c0,0-2.08-1.91-1.55-3.1c0.52-1.18,3.16-0.05,5.18,1.68c-0.68-0.17-1.43,0.68-0.95,1.19
										c0.47,0.51,1.28,0.92,2.51,0.83c-1.36,0.8-3.22,0.24-3.73-0.61c-0.51-0.85,0.97-1.71,0.97-1.71s-2.22-1.33-2.72-0.79
										C60.53,140.41,61.34,142.39,61.34,142.39z"/>
								</g>
								<path class="st4" d="M84.07,141.19c-1.99,4.65-6.93,8.11-10.84,7.23c-3.91-0.88-6.64-4.13-9.15-7.97
									c-1.22-1.76-1.75-3.15-2.57-4.81c-0.28-0.56-0.49-1.16-0.61-1.76c-0.48-2.26,0.14-4.66,1.82-6.34
									c0.08-0.08,0.16-0.15,0.24-0.23c3.71-3.46,9.66-4.28,10.4-9.22c2.14,2.58,4.7,3.78,6.73,4.33c1.47,0.4,2.74,1.24,3.7,2.36
									c0.76,0.89,1.32,1.97,1.59,3.15c0.1,0.4,0.18,0.81,0.25,1.22C86.14,132.34,86.06,136.55,84.07,141.19z"/>
								<path class="st7" d="M83.78,124.8c-1.08-0.37-2.34-0.42-3.57-0.76c-2.46-0.69-4.07-0.65-6.25-2.79
									c-1.28,3.05-7.23,5.74-10.38,8.1c-1.64,1.23-2.37,3.07-2.69,4.55c-0.48-2.26,0.14-4.66,1.82-6.34
									c0.08-0.08,0.16-0.15,0.24-0.23c3.71-3.46,9.66-4.28,10.4-9.22c2.14,2.58,4.7,3.78,6.73,4.33
									C81.55,122.84,82.83,123.68,83.78,124.8z"/>
								<g>
									<g>
										<path class="st8" d="M73.89,127.46c0,0,0.97-1.43,2.51-1.81c1.64-0.4,3.04,0.31,3.04,0.31s-1.11-2.26-3.56-1.88
											C73.5,124.44,73.89,127.46,73.89,127.46z"/>
									</g>
									<g>
										<path class="st8" d="M62.97,132.56c0,0,0.97-1.43,2.51-1.81c1.64-0.4,3.04,0.31,3.04,0.31s-1.11-2.25-3.56-1.88
											C62.58,129.54,62.97,132.56,62.97,132.56z"/>
									</g>
									<g>
										<path class="st5" d="M69.6,129.38c0,0,2.33,0.97,2.92,3.63c0.59,2.66-1.97,4.2-1.97,4.2s0.74-1.38,0.57-3.84
											C70.96,131.21,69.6,129.38,69.6,129.38z"/>
										<path class="st5" d="M74.15,135.8c-0.04-0.7-2.21,1.23-1.97,1.23C72.43,137.03,74.2,136.68,74.15,135.8z"/>
									</g>
									<g>
										<path class="st8" d="M79.18,140.21c-0.64,1.97-2.72,2.88-4.56,2.8c-0.05,0-0.1,0-0.14-0.01
											c-2.63-0.19-3.53-2.03-3.28-3.23c0.02-0.12,0.12-0.2,0.18-0.28c0.63-0.77,1.61-0.42,2.87-1c2.56-1.17,2.27-2.55,3.52-2.24
											c0.1,0.02,0.19,0.06,0.28,0.1c0.64,0.31,1.11,1.06,1.27,1.95C79.42,138.91,79.39,139.58,79.18,140.21z"/>
										<path class="st5" d="M79.18,140.21c-0.64,1.97-2.72,2.88-4.56,2.8c0.09-0.78,0.51-2.38,2.47-2.37
											c0.32-1.29,0.88-2.41,2.23-2.33C79.42,138.91,79.39,139.58,79.18,140.21z"/>
										<path class="st10" d="M78.05,136.36c-0.03,0.43-0.13,0.98-0.54,1.57c-1.5,2.14-4.62,2.58-5.46,2.26
											c-0.4-0.16-0.51-0.38-0.68-0.69c0.63-0.77,1.61-0.42,2.87-1c2.56-1.17,2.27-2.55,3.52-2.24
											C77.86,136.28,77.96,136.32,78.05,136.36z"/>
										<path class="st5" d="M71.19,139.77c0,0,0.25-0.38,0.99-0.47c0.74-0.09,1.59,0.02,2.71-0.52c1.12-0.53,2.01-2.19,2.4-2.32
											c0.39-0.13,0.76-0.1,0.76-0.1s-0.69-0.44-1.34-0.18c-0.65,0.26-1.16,1.53-2.31,2.01
											C73.27,138.67,71.45,138.33,71.19,139.77z"/>
									</g>
									<path class="st7" d="M78.5,144.15c-0.89-0.85-3.76-0.89-4.09,1.62C74.56,146.4,79.76,145.35,78.5,144.15z"/>
									<g>
										<path class="st7" d="M82.4,131.27c-1.13-1.13-5.25,1.93-4.5,2.71C79.14,135.28,83.53,132.4,82.4,131.27z"/>
										<path class="st7" d="M69.86,138.4c-1.13-1.13-5.25,1.93-4.5,2.71C66.6,142.41,70.99,139.53,69.86,138.4z"/>
									</g>
								</g>
								<path class="st9" d="M75.08,132.44l4.1-3.97c0,0-2.24-0.74-3.84,1.31C74.27,131.15,75.08,132.44,75.08,132.44z"/>
								<path class="st9" d="M64.91,136.13l5.53-1.02c0,0-1.43-1.83-3.87-1.03C64.95,134.62,64.91,136.13,64.91,136.13z"/>
								<g>
									<path class="st4" d="M86.58,123.52c3.23-1.83,4.45,1.59,4.2,3.79c-0.25,2.21-0.32,4.42-3.67,6.11
										c-1.49,0.75-2.27,0.02-2.27,0.02S82.99,125.55,86.58,123.52z"/>
									<path class="st5" d="M89.77,128.01c0,0,0.21-3.19-1.14-3.75c-1.35-0.56-2.64,2.43-2.94,5.41c0.43-0.67,1.7-0.55,1.71,0.24
										c0.01,0.79-0.34,1.76-1.41,2.64c1.74-0.4,2.83-2.32,2.59-3.41c-0.24-1.1-2.13-0.65-2.13-0.65s0.78-2.82,1.62-2.77
										S89.77,128.01,89.77,128.01z"/>
								</g>
							</g>
						</g>
					</g>
				</g>
				<g class="st13">
					<path class="st15" d="M129.45,135.7v129.68h-24.99c-0.86,0-3.04-7.41-3.45-8.28c-0.12-0.26-0.24-0.52-0.35-0.78
						c-1.05-2.51-1.46-4.98-1.94-7.77c-1.2-7.05-2.31-14.13-4.29-21.01c-1.72-5.97-5.34-14.11-10.95-17.36
						c-2.67-1.54-6.14-1.85-8.64-3.64c-1.73-1.23-3.07-3.43-4.04-5.32c-2.37-4.61-2.85-9.98-3.16-15.07
						c-0.42-6.88-0.81-14.28-5.07-19.71c-1.11-1.42-1.81-1.71-2.48-3.38c-0.14-0.35,3.34-3.97,5.27-5.53
						c1.1-0.89,3.86-2.99,5.3-2.56c1.24,0.36,3.45,3.93,4.8,4.84c1.8,1.21,3.82,2.08,5.95,2.52c11.39,2.34,23.93-8.94,20.4-20.71
						c-0.66-2.2-1.32-3.08-2.58-4.96c2.35-2.52,5.85-5.24,8.73-7.03c3.94-2.45,7.75-2.41,10.97-0.96c3.58,1.62,7.67,3.83,10.31,6.8
						C129.33,135.55,129.39,135.62,129.45,135.7z"/>
				</g>
			</g>
			<g class="st0">
				<g class="st13">
					<g>
						<path class="st4" d="M54.37,347.32c-8.06,7.92-16.65,12.88-19.94,11.53C14.62,347.35,23.21,284,23.21,284l9.23,1.99l8.05,37.4
							c0,0,11.94-14.29,17.28-19.13c5.5-4.96,12.57-3.01,13.46,9.3C72.09,325.37,63.57,338.27,54.37,347.32z"/>
						<path class="st7" d="M54.37,347.32L40.49,323.4c0,0,11.94-14.29,17.28-19.13c5.5-4.96,12.57-3.01,13.46,9.3
							C72.09,325.37,63.57,338.27,54.37,347.32z"/>
					</g>
					<g>
						<path class="st4" d="M38.96,277.19c0.13,0.16,0.23,0.41,0.27,0.79c0.06,0.55-0.17,1.08-0.4,1.58
							c-1.94,4.26-4.77,8.37-9.91,8.44c-2.86,0.04-5.22-1.28-7.29-3.15c-3.22-2.93-6.06-6.34-8.31-10.07
							c-0.58-0.97-3.88-6.2-2.36-7.19c0.87-0.57,2.04,0.49,4.66,4.94c1.05,1.79,4.71,4.95,4.71,4.95s-3.01-5.03-3.59-6.47
							c-0.59-1.45-2.52-8.03-0.75-9.52c1.35-1.14,2.8,5.88,3.6,7.44c0.87,1.71,3.07,4.78,3.57,5.48c-0.37-0.79-1.44-4.58-1.61-6.91
							c-0.18-2.42,0.86-8.12,2.09-7.73c0.89,0.29,1.25,4.02,1.38,6.06c0.06,0.9,0.24,1.8,0.56,2.65c0.33,0.91,0.83,2.26,1.44,3.93
							c1.49-2.5,4.33-2.15,7.36-0.3c2.72,1.66,3.72,1.95,3.1,3.39c-2.93,2.44-6.19-2.23-7.58-0.28c-1.39,1.95,1.18,6.62,3.66,5.92
							c1.67-0.47,1.71-1.29,2.56-2.38C36.6,278.15,38.28,276.39,38.96,277.19z"/>
						<path class="st7" d="M20.39,278.05c0,0,2.38,0.78,4.23,2.18c1.85,1.4,2.58,3.45,2.74,3.91c0.36-1.43,0.61-3.02-1.77-4.91
							C23.21,277.34,20.39,278.05,20.39,278.05z"/>
					</g>
					<path class="st16" d="M42.51,318.71l19.16,25.34c0,0,18.1-23.21,17.03-35.77s-7.88-15.76-12.56-14.27
						C61.46,295.5,42.51,318.71,42.51,318.71z"/>
				</g>
				<g class="st13">
					<path class="st4" d="M63.57,275.47c0,0,0.03,1.07-1.52,1.68c-0.31,0.12-0.6,0.22-0.88,0.3c-2.91,0.83-4.47-0.46-6.12-1.63
						c-1.81-1.28-3.56-4.46-0.04-5.66c0.72-0.25,1.47-0.22,2.21-0.01C60.48,271.07,63.57,275.47,63.57,275.47z"/>
					<path class="st5" d="M56.24,275.53c0,0-2.52-1.96-2.05-3.34c0.48-1.38,3.56-0.36,6,1.41c-0.78-0.12-0.88,1-0.3,1.53
						c0.58,0.53,0.87,0.82,2.25,0.6c-1.46,1.03-3.61,0.57-4.27-0.34c-0.66-0.91,0.93-2.03,0.93-2.03s-2.62-1.29-3.15-0.63
						C55.13,273.38,56.24,275.53,56.24,275.53z"/>
					<path class="st5" d="M63.57,275.47c0,0,0.03,1.07-1.52,1.68c-0.31,0.12-0.6,0.22-0.88,0.3c-1.99-2.44-3.35-5.68-3.95-7.3
						C60.48,271.07,63.57,275.47,63.57,275.47z"/>
				</g>
				<path class="st17" d="M83.11,258.33c0,0-1.34-10.38-3.76-12.65c-2.41-2.27-25.62-0.71-27.4,0.57s3.62,2.77,3.62,2.77
					s-10.86,4.76-10.43,6.1c0.43,1.35,4.9-0.14,4.9-0.14s-7.17,7.24-5.46,7.45c1.7,0.21,6.67-3.26,6.67-3.26s-2.91,9.3-1.63,9.44
					c1.28,0.14,3.26-3.83,3.26-3.83s2.91,5.68,7.67,7.74C65.3,274.57,82.25,265.88,83.11,258.33z"/>
				<g class="st13">
					<g>
						<g>
							<path class="st4" d="M94.18,275.44c-0.89-2.16-1.84-3.84-1.84-3.84s-1.98,1.61-4.56,3.74c-0.87-1.74-1.83-3.88-2.75-6.05
								c-2.38-5.6-4.55-11.43-4.55-11.43l-12.76,11.95c0,0,2.51,4.87,5.46,10.25c0.92,1.69,1.52,3.13,1.89,4.31
								c0.2,0.63,0.34,1.18,0.43,1.66l-5.81,5.63c0,0,3.84,7.3,14.61,2.66C95.73,289.39,95.73,279.21,94.18,275.44z"/>
							<path class="st7" d="M85.02,269.3c0.09,4.98-1.43,8.12-4.55,11.44c-1.87,1.99-3.91,3.07-5.41,3.65
								c-0.38-1.18-0.97-2.62-1.89-4.31c-2.95-5.38-5.46-10.25-5.46-10.25l12.76-11.95C80.48,257.87,82.64,263.7,85.02,269.3z"/>
							<path class="st7" d="M83.2,287.42c0,0-9.89,2.38-9.05,2.91c0.83,0.53,7.03,0.14,10.58-1.87c3.55-2,8-8.44,7.29-9.48
								C91.3,277.95,83.2,287.42,83.2,287.42z"/>
						</g>
						<g>
							<g>
								<path class="st4" d="M78.92,278.19c-3.37,3.64-7.1,5.2-10.97,3.42c-2.71-1.25-4.66-4.36-6.25-6.75
									c-2-3.01-3.85-6.03-5.62-9.18c2.28-2.1,4.56-4.21,6.84-6.31c-0.14,0.57,0.05,1.24,0.6,1.44c0.53,0.19,1.1-0.14,1.56-0.47
									c2.23-1.57,4.31-3.34,6.21-5.29c-0.21,0.61-0.01,1.39,0.59,1.6c0.65,0.23,1.3-0.3,1.78-0.79c1.45-1.46,2.9-2.92,4.35-4.38
									c1.83,4.36,4.31,8.83,4.81,13.6C83.12,267.83,82.82,273.98,78.92,278.19z"/>
							</g>
						</g>
					</g>
				</g>
				<g class="st13">
					<g>
						<path class="st8" d="M76.2,275.3c-0.64,1.97-2.72,2.88-4.56,2.8c-0.05,0-0.1,0-0.14-0.01c-2.63-0.19-3.53-2.03-3.28-3.23
							c0.02-0.12,0.12-0.2,0.18-0.28c0.63-0.77,1.61-0.42,2.87-1c2.56-1.17,2.27-2.55,3.52-2.24c0.1,0.02,0.19,0.06,0.28,0.1
							c0.64,0.31,1.11,1.06,1.27,1.95C76.44,274,76.41,274.67,76.2,275.3z"/>
						<path class="st5" d="M76.2,275.3c-0.64,1.97-2.72,2.88-4.56,2.8c0.09-0.78,0.51-2.38,2.47-2.37c0.32-1.28,0.88-2.41,2.23-2.33
							C76.44,274,76.41,274.67,76.2,275.3z"/>
						<path class="st10" d="M75.07,271.45c-0.03,0.43-0.13,0.98-0.54,1.57c-1.5,2.14-4.62,2.58-5.46,2.26
							c-0.4-0.16-0.51-0.38-0.68-0.69c0.63-0.77,1.61-0.42,2.87-1c2.56-1.17,2.27-2.55,3.52-2.24
							C74.89,271.37,74.98,271.41,75.07,271.45z"/>
						<path class="st5" d="M68.21,274.86c0,0,0.25-0.38,0.99-0.47c0.74-0.09,1.59,0.02,2.71-0.52c1.12-0.53,2.01-2.19,2.4-2.32
							c0.39-0.13,0.76-0.1,0.76-0.1s-0.69-0.44-1.34-0.18c-0.65,0.26-1.16,1.53-2.31,2.01C70.29,273.76,68.48,273.42,68.21,274.86z"
							/>
					</g>
					<g>
						<path class="st5" d="M66.68,263.6c0,0,2.07,1.72,2.66,4.38c0.59,2.66-1.38,3.98-1.38,3.98s0.44-1.48-0.02-3.98
							C67.54,265.84,66.68,263.6,66.68,263.6z"/>
					</g>
					<g>
						<path class="st8" d="M75.73,261.57c-0.98-0.44-2.16,0.15-2.39,1.2c-0.3,1.33,0.81,2.47,2.13,2.01
							c1.37-0.48,1.7-2.46,0.36-3.17C75.79,261.6,75.76,261.58,75.73,261.57z"/>
						<path class="st8" d="M69.94,262.17c0,0,0.97-1.43,2.51-1.81c1.64-0.4,3.04,0.31,3.04,0.31s-1.11-2.25-3.56-1.88
							C69.55,259.15,69.94,262.17,69.94,262.17z"/>
					</g>
					<g>
						<path class="st8" d="M65.92,266.33c-0.98-0.44-2.16,0.15-2.39,1.2c-0.3,1.33,0.81,2.47,2.13,2.01
							c1.37-0.48,1.7-2.46,0.36-3.17C65.99,266.36,65.96,266.35,65.92,266.33z"/>
						<path class="st8" d="M60.05,266.78c0,0,0.97-1.43,2.51-1.81c1.64-0.4,3.04,0.31,3.04,0.31s-1.11-2.25-3.56-1.88
							C59.66,263.76,60.05,266.78,60.05,266.78z"/>
					</g>
					<g>
						<path class="st7" d="M79.77,263.74c-1.33-0.89-4.77,2.92-3.88,3.54C77.36,268.31,81.1,264.63,79.77,263.74z"/>
						<path class="st7" d="M61.47,273.31c0.15-1.73,5.26-2.25,5.15-1.04C66.47,274.06,61.33,274.9,61.47,273.31z"/>
					</g>
					<g>
						<g>
							<path class="st5" d="M71.99,270.09c-0.04-0.7-2.21,1.23-1.97,1.23C70.27,271.32,72.04,270.97,71.99,270.09z"/>
						</g>
					</g>
				</g>
				<path class="st18" d="M23.45,258.96c-0.03,0-0.02,0.05,0,0.05C23.49,259,23.48,258.96,23.45,258.96z"/>
				<g class="st13">
					<path class="st4" d="M82.99,253.37c3.13-1.99,4.53,1.36,4.39,3.57c-0.14,2.22-0.09,4.43-3.35,6.29
						c-1.45,0.83-2.26,0.14-2.26,0.14S79.5,255.59,82.99,253.37z"/>
					<path class="st5" d="M86.4,257.7c0,0,0.05-3.2-1.33-3.69c-1.38-0.49-2.51,2.56-2.66,5.56c0.39-0.69,1.67-0.64,1.72,0.15
						c0.05,0.79-0.25,1.77-1.28,2.7c1.72-0.49,2.7-2.46,2.41-3.54c-0.3-1.08-2.16-0.54-2.16-0.54s0.64-2.85,1.48-2.85
						C85.42,255.48,86.4,257.7,86.4,257.7z"/>
				</g>
				<g class="st13">
					<g>
						<g>
							<path class="st16" d="M94.33,269.76c0,0,5.16-6.17,11.16-7.75c6-1.57,13.28-2.26,13.28-2.26v29.41L94.33,269.76z"/>
						</g>
					</g>
					<g>
						<g>
							<path class="st16" d="M171.66,335.02l-54.87,60.49c0,0-56.17-84.48-55.4-95.29c0.24-3.3,5.11-6.92,7.6-8.2
								c0.44-0.23,0.7-0.34,0.7-0.34s6.3,9.37,17.92,1.11c9.44-6.71,6.28-17.68,4.72-21.17c0.41-0.56,1.96-1.82,1.99-1.84
								c8.82-6.46,17.62,2.48,21.69,6.3C120.1,279.89,171.66,335.02,171.66,335.02z"/>
						</g>
						<path class="st19" d="M88.57,293.66c-6.57,4.69-15.58,5.51-19.58-1.65c-0.06-0.11-0.12-0.23-0.18-0.34l1.33-1.25
							c0,0,0.16,0.31,0.5,0.77c1.59,2.24,7.03,8.08,16.62,0.63c8.85-6.87,6.59-15.08,5.03-18.57c-0.48-1.08-0.9-1.71-0.9-1.71
							l1.33-1.03c0,0,0.36,0.27,0.86,0.95c0.75,1.02,1.81,2.97,2.39,6.28C96.91,283.19,95.8,288.5,88.57,293.66z"/>
					</g>
				</g>
			</g>
			<g class="st0">
				<g class="st13">
					<g>
						<g>
							<rect x="115.62" y="97.06" class="st10" width="215.61" height="308.23"/>
							<path class="st14" d="M133.42,114.4c0,7.7-6.24,13.95-13.95,13.95h-3.85V97.06l9.91,4.78c2.41,1.17,4.38,2.97,5.75,5.15
								C132.65,109.16,133.42,111.72,133.42,114.4z"/>
							<path class="st14" d="M133.42,255.14c0,7.7-6.24,13.95-13.95,13.95h-3.85V237.8l9.91,4.78c2.41,1.16,4.38,2.97,5.75,5.15
								C132.65,249.9,133.42,252.46,133.42,255.14z"/>
						</g>
					</g>
				</g>
				<g class="st13">
					<path class="st7" d="M112.7,252.35c-0.15-0.05-1.13-2.81-1.18-5.47c-0.06-3.31,4.97-6.16,6.21-5.17
						c0.65,0.52-0.14,2.02-1.03,3.33c-1.08,1.59-1.56,3.5-1.38,5.41c0.06,0.6,0.1,1.04,0.1,1.01
						C115.41,251.36,112.7,252.35,112.7,252.35z"/>
					<path class="st4" d="M122.95,263.83c-0.79,0.79-10.84,0.49-12.12-0.69c-0.83-0.76-1.04-1.69-0.55-2.52
						c0.26-0.45,0.74-0.88,1.44-1.23c-1.28-1.58-1.38-3.35,0-4.73c-0.16-0.27-0.25-0.56-0.27-0.86c-0.12-1.52,1.52-3.19,4.41-3.19
						c3.45,0,5.52,1.67,6.5,2.96c0.52,0.68,0.63,1.19,0.47,1.75c-0.14,0.5-0.5,1.05-0.96,1.79c1.77,1.97,1.08,2.56,0.29,3.74
						c0.06,0.03,0.12,0.07,0.18,0.1c0.79,0.48,1.13,1,1.18,1.49C123.58,262.97,123.33,263.44,122.95,263.83z"/>
					<path class="st7" d="M122.83,255.34c-0.14,0.5-0.5,1.05-0.96,1.79c-6.01-4.93-10.15-2.46-10.15-2.46
						c-0.16-0.27-0.25-0.56-0.27-0.86c1.57-0.83,3.48-1.38,5.59-1.02C120.06,253.3,121.83,254.4,122.83,255.34z"/>
					<path class="st7" d="M123.52,262.47c-2.15-0.8-7.36-2.41-13.24-1.85c0.26-0.45,0.74-0.88,1.44-1.23c0,0,3.15-0.54,10.44,1.48
						c0.06,0.03,0.12,0.07,0.18,0.1C123.12,261.45,123.47,261.97,123.52,262.47z"/>
				</g>
				<g class="st13">
					<path class="st4" d="M124.58,121.94c0,0.04,0,0.09-0.01,0.13c-0.15,1.38-1.38,1.33-1.97,1.33c-0.59,0-9.54,0.3-10.33-0.15
						c-0.54-0.3-0.76-1.46-0.27-2.57c0.22-0.51,0.6-1.01,1.15-1.41c-0.52-1.19-0.7-2.15-0.49-3.03c0.15-0.61,0.48-1.18,1.03-1.74
						c-0.24-0.56-0.4-1.25-0.19-1.92c0.15-0.45,0.47-0.89,1.06-1.27c-0.93-1.62-0.12-2.82,1.16-3.26c1.28-0.44,6.87,0.66,7.84,2.8
						c0.69,1.53,0.01,2.27,0.01,2.27s0,0,0,0c0.05,0.05,0.83,0.82,0.8,1.59c0,0.11-0.02,0.22-0.06,0.32
						c-0.34,0.89-0.79,1.53-0.79,1.53s0.72,0.6,0.76,1.68c0.01,0.15,0,0.31-0.02,0.48c-0.1,0.69-0.98,1.43-0.98,1.43
						S124.63,120.65,124.58,121.94z"/>
					<path class="st7" d="M124.58,121.94c-0.77-0.33-1.79-0.65-3.11-0.9c-3.54-0.67-7.11-0.86-9.46-0.36
						c0.22-0.51,0.6-1.01,1.15-1.41c0,0,4.48-0.84,10.13,0.88C123.29,120.15,124.63,120.65,124.58,121.94z"/>
					<path class="st7" d="M124.3,118.24c-2.07-0.92-4.91-1.95-7.26-2.07c-1.78-0.1-3.25-0.03-4.37,0.07
						c0.15-0.61,0.48-1.18,1.03-1.74c0,0,3.52-1.28,9.84,2.07C123.54,116.56,124.25,117.16,124.3,118.24z"/>
					<path class="st7" d="M124.39,114.71c-0.83-0.42-2.07-1.24-3.56-1.62c-2.97-0.76-5.96-1.01-7.31-0.52
						c0.15-0.45,0.47-0.89,1.06-1.27c0,0,3.85-0.5,9.01,1.81c0,0,0,0,0,0C123.64,113.17,124.42,113.94,124.39,114.71z"/>
				</g>
			</g>
			<g class="st0">
				<path class="st20" d="M125.77,178.82c0,0-18.85,13.27-32.24,26.82c-7.25-22.24-24.54-51.53-33.41-42.58
					c-7.59,7.66,11.38,53.3,20.45,63.38c1.2,1.33,2.45,2.6,3.76,3.82c1.33,1.24,2.75,2.44,4.46,3.03c4.14,1.44,9.95-3.41,13-6.03
					c3.95-3.39,7.36-7.41,10.5-11.55c5.54-7.29,10.34-15.15,14.65-23.22c0.59-1.1,1.17-2.2,1.73-3.32L125.77,178.82z"/>
				<g class="st13">
					<path class="st7" d="M123.83,184.92c0,0-1.2-6.15,3.24-11.42c2.91-1.66,8.05,0.51,8.05,0.51s3.83-1.52,4.62-0.94
						c0.8,0.58-0.25,2.43-2.82,4.18C134.35,178.99,123.83,184.92,123.83,184.92z"/>
					<path class="st4" d="M130.64,190.44c0,0,7.19-0.66,8.23-2.35c1.04-1.69-0.54-2.48-0.54-2.48s2.28-0.45,1.84-1.81
						c-0.44-1.36-1.5-2.37-1.5-2.37s3.04,0.22,1.38-2.15c4.8-0.01,7.64,0.46,7.51-0.73c-0.13-1.18-3.17-1.94-6.64-2.6
						c-3.46-0.65-7.69-1.83-11.75-0.13c-4.06,1.7-5.77,6.03-5.34,9.09C124.25,187.98,127.54,190.55,130.64,190.44"/>
				</g>
			</g>
		</g>
	</g>
</g>
</svg>
